<svg width="144" height="33" viewBox="0 0 144 33" fill="none" xmlns="http://www.w3.org/2000/svg">
<path d="M4.68801 0.320007V24H0.208008V0.320007H4.68801Z" fill="#6842F8"/>
<path d="M7.96226 15.072C7.96226 13.28 8.31426 11.6907 9.01826 10.304C9.74359 8.91734 10.7143 7.85067 11.9303 7.10401C13.1676 6.35734 14.5436 5.98401 16.0583 5.98401C17.3809 5.98401 18.5329 6.25067 19.5143 6.78401C20.5169 7.31734 21.3169 7.98934 21.9143 8.80001V6.27201H26.4263V24H21.9143V21.408C21.3383 22.24 20.5383 22.9333 19.5143 23.488C18.5116 24.0213 17.3489 24.288 16.0263 24.288C14.5329 24.288 13.1676 23.904 11.9303 23.136C10.7143 22.368 9.74359 21.2907 9.01826 19.904C8.31426 18.496 7.96226 16.8853 7.96226 15.072ZM21.9143 15.136C21.9143 14.048 21.7009 13.12 21.2743 12.352C20.8476 11.5627 20.2716 10.9653 19.5463 10.56C18.8209 10.1333 18.0423 9.92001 17.2103 9.92001C16.3783 9.92001 15.6103 10.1227 14.9063 10.528C14.2023 10.9333 13.6263 11.5307 13.1783 12.32C12.7516 13.088 12.5383 14.0053 12.5383 15.072C12.5383 16.1387 12.7516 17.0773 13.1783 17.888C13.6263 18.6773 14.2023 19.2853 14.9063 19.712C15.6316 20.1387 16.3996 20.352 17.2103 20.352C18.0423 20.352 18.8209 20.1493 19.5463 19.744C20.2716 19.3173 20.8476 18.72 21.2743 17.952C21.7009 17.1627 21.9143 16.224 21.9143 15.136Z" fill="#6842F8"/>
<path d="M40.6258 6.01601C42.7378 6.01601 44.4444 6.68801 45.7458 8.03201C47.0471 9.35467 47.6978 11.2107 47.6978 13.6V24H43.2178V14.208C43.2178 12.8 42.8658 11.7227 42.1618 10.976C41.4578 10.208 40.4978 9.82401 39.2818 9.82401C38.0444 9.82401 37.0631 10.208 36.3378 10.976C35.6338 11.7227 35.2818 12.8 35.2818 14.208V24H30.8018V6.27201H35.2818V8.48001C35.8791 7.71201 36.6364 7.11467 37.5538 6.68801C38.4924 6.24001 39.5164 6.01601 40.6258 6.01601Z" fill="#6842F8"/>
<path d="M58.902 5.98401C60.2247 5.98401 61.3873 6.25067 62.39 6.78401C63.3927 7.29601 64.182 7.96801 64.758 8.80001V6.27201H69.27V24.128C69.27 25.7707 68.9393 27.232 68.278 28.512C67.6167 29.8133 66.6247 30.8373 65.302 31.584C63.9793 32.352 62.3793 32.736 60.502 32.736C57.9847 32.736 55.9153 32.1493 54.294 30.976C52.694 29.8027 51.7873 28.2027 51.574 26.176H56.022C56.2567 26.9867 56.758 27.6267 57.526 28.096C58.3153 28.5867 59.2647 28.832 60.374 28.832C61.6753 28.832 62.7313 28.4373 63.542 27.648C64.3527 26.88 64.758 25.7067 64.758 24.128V21.376C64.182 22.208 63.382 22.9013 62.358 23.456C61.3553 24.0107 60.2033 24.288 58.902 24.288C57.4087 24.288 56.0433 23.904 54.806 23.136C53.5687 22.368 52.5873 21.2907 51.862 19.904C51.158 18.496 50.806 16.8853 50.806 15.072C50.806 13.28 51.158 11.6907 51.862 10.304C52.5873 8.91734 53.558 7.85067 54.774 7.10401C56.0113 6.35734 57.3873 5.98401 58.902 5.98401ZM64.758 15.136C64.758 14.048 64.5447 13.12 64.118 12.352C63.6913 11.5627 63.1153 10.9653 62.39 10.56C61.6647 10.1333 60.886 9.92001 60.054 9.92001C59.222 9.92001 58.454 10.1227 57.75 10.528C57.046 10.9333 56.47 11.5307 56.022 12.32C55.5953 13.088 55.382 14.0053 55.382 15.072C55.382 16.1387 55.5953 17.0773 56.022 17.888C56.47 18.6773 57.046 19.2853 57.75 19.712C58.4753 20.1387 59.2433 20.352 60.054 20.352C60.886 20.352 61.6647 20.1493 62.39 19.744C63.1153 19.3173 63.6913 18.72 64.118 17.952C64.5447 17.1627 64.758 16.224 64.758 15.136Z" fill="#6842F8"/>
<path d="M75.6295 24.224C74.8188 24.224 74.1468 23.9787 73.6135 23.488C73.1015 22.976 72.8455 22.3467 72.8455 21.6C72.8455 20.8533 73.1015 20.2347 73.6135 19.744C74.1468 19.232 74.8188 18.976 75.6295 18.976C76.4188 18.976 77.0695 19.232 77.5815 19.744C78.0935 20.2347 78.3495 20.8533 78.3495 21.6C78.3495 22.3467 78.0935 22.976 77.5815 23.488C77.0695 23.9787 76.4188 24.224 75.6295 24.224Z" fill="#6842F8"/>
<path d="M80.806 15.072C80.806 13.28 81.158 11.6907 81.862 10.304C82.5873 8.91734 83.558 7.85067 84.774 7.10401C86.0113 6.35734 87.3873 5.98401 88.902 5.98401C90.2247 5.98401 91.3767 6.25067 92.358 6.78401C93.3607 7.31734 94.1607 7.98934 94.758 8.80001V6.27201H99.27V24H94.758V21.408C94.182 22.24 93.382 22.9333 92.358 23.488C91.3553 24.0213 90.1927 24.288 88.87 24.288C87.3767 24.288 86.0113 23.904 84.774 23.136C83.558 22.368 82.5873 21.2907 81.862 19.904C81.158 18.496 80.806 16.8853 80.806 15.072ZM94.758 15.136C94.758 14.048 94.5447 13.12 94.118 12.352C93.6913 11.5627 93.1153 10.9653 92.39 10.56C91.6647 10.1333 90.886 9.92001 90.054 9.92001C89.222 9.92001 88.454 10.1227 87.75 10.528C87.046 10.9333 86.47 11.5307 86.022 12.32C85.5953 13.088 85.382 14.0053 85.382 15.072C85.382 16.1387 85.5953 17.0773 86.022 17.888C86.47 18.6773 87.046 19.2853 87.75 19.712C88.4753 20.1387 89.2433 20.352 90.054 20.352C90.886 20.352 91.6647 20.1493 92.39 19.744C93.1153 19.3173 93.6913 18.72 94.118 17.952C94.5447 17.1627 94.758 16.224 94.758 15.136Z" fill="#6842F8"/>
<path d="M108.126 8.83201C108.702 8.02134 109.491 7.34934 110.494 6.81601C111.518 6.26134 112.68 5.98401 113.982 5.98401C115.496 5.98401 116.862 6.35734 118.078 7.10401C119.315 7.85067 120.286 8.91734 120.99 10.304C121.715 11.6693 122.078 13.2587 122.078 15.072C122.078 16.8853 121.715 18.496 120.99 19.904C120.286 21.2907 119.315 22.368 118.078 23.136C116.862 23.904 115.496 24.288 113.982 24.288C112.68 24.288 111.528 24.0213 110.526 23.488C109.544 22.9547 108.744 22.2827 108.126 21.472V32.448H103.646V6.27201H108.126V8.83201ZM117.502 15.072C117.502 14.0053 117.278 13.088 116.83 12.32C116.403 11.5307 115.827 10.9333 115.102 10.528C114.398 10.1227 113.63 9.92001 112.798 9.92001C111.987 9.92001 111.219 10.1333 110.494 10.56C109.79 10.9653 109.214 11.5627 108.766 12.352C108.339 13.1413 108.126 14.0693 108.126 15.136C108.126 16.2027 108.339 17.1307 108.766 17.92C109.214 18.7093 109.79 19.3173 110.494 19.744C111.219 20.1493 111.987 20.352 112.798 20.352C113.63 20.352 114.398 20.1387 115.102 19.712C115.827 19.2853 116.403 18.6773 116.83 17.888C117.278 17.0987 117.502 16.16 117.502 15.072Z" fill="#6842F8"/>
<path d="M129.813 8.83201C130.389 8.02134 131.178 7.34934 132.181 6.81601C133.205 6.26134 134.368 5.98401 135.669 5.98401C137.184 5.98401 138.549 6.35734 139.765 7.10401C141.002 7.85067 141.973 8.91734 142.677 10.304C143.402 11.6693 143.765 13.2587 143.765 15.072C143.765 16.8853 143.402 18.496 142.677 19.904C141.973 21.2907 141.002 22.368 139.765 23.136C138.549 23.904 137.184 24.288 135.669 24.288C134.368 24.288 133.216 24.0213 132.213 23.488C131.232 22.9547 130.432 22.2827 129.813 21.472V32.448H125.333V6.27201H129.813V8.83201ZM139.189 15.072C139.189 14.0053 138.965 13.088 138.517 12.32C138.09 11.5307 137.514 10.9333 136.789 10.528C136.085 10.1227 135.317 9.92001 134.485 9.92001C133.674 9.92001 132.906 10.1333 132.181 10.56C131.477 10.9653 130.901 11.5627 130.453 12.352C130.026 13.1413 129.813 14.0693 129.813 15.136C129.813 16.2027 130.026 17.1307 130.453 17.92C130.901 18.7093 131.477 19.3173 132.181 19.744C132.906 20.1493 133.674 20.352 134.485 20.352C135.317 20.352 136.085 20.1387 136.789 19.712C137.514 19.2853 138.09 18.6773 138.517 17.888C138.965 17.0987 139.189 16.16 139.189 15.072Z" fill="#6842F8"/>
</svg>
