<svg width="70" height="48" viewBox="0 0 70 48" fill="none" xmlns="http://www.w3.org/2000/svg">
<g clip-path="url(#clip0_135_96)">
<path d="M68.1664 7.51059C67.3638 4.57412 65.0132 2.25882 62.032 1.46824C56.5856 0 34.7999 0 34.7999 0C34.7999 0 13.0141 0 7.56768 1.41176C4.6438 2.20235 2.2359 4.57412 1.43327 7.51059C0 12.8753 0 24 0 24C0 24 0 35.1812 1.43327 40.4894C2.2359 43.4259 4.58647 45.7412 7.56768 46.5318C13.0714 48 34.7999 48 34.7999 48C34.7999 48 56.5856 48 62.032 46.5882C65.0132 45.7976 67.3638 43.4824 68.1664 40.5459C69.5997 35.1812 69.5997 24.0565 69.5997 24.0565C69.5997 24.0565 69.657 12.8753 68.1664 7.51059Z" fill="#6842F8"/>
<path d="M39.75 18.6H29.85C30.2625 16.05 30.9187 13.9875 31.8187 12.4125C32.7187 10.8375 33.7125 10.05 34.8 10.05C35.8875 10.05 36.8812 10.8375 37.7812 12.4125C38.6812 13.9875 39.3375 16.05 39.75 18.6ZM29.5687 27.6C29.4562 26.4 29.4 25.2 29.4 24C29.4 22.8 29.4562 21.6 29.5687 20.4H40.0312C40.1437 21.6 40.2 22.8 40.2 24C40.2 25.2 40.1437 26.4 40.0312 27.6H29.5687ZM47.6812 18.6H41.6062C41.0437 15.15 40.1062 12.4875 38.7937 10.6125C40.7812 11.2125 42.5437 12.225 44.0812 13.65C45.6562 15.0375 46.8562 16.6875 47.6812 18.6ZM30.8062 10.6125C29.4562 12.4875 28.5187 15.15 27.9937 18.6H21.9187C22.7437 16.6875 23.925 15.0375 25.4625 13.65C27.0375 12.225 28.8187 11.2125 30.8062 10.6125ZM48.2437 20.4C48.5812 21.6 48.75 22.8 48.75 24C48.75 25.2 48.5812 26.4 48.2437 27.6H41.8312C41.9437 26.3625 42 25.1625 42 24C42 22.8375 41.9437 21.6375 41.8312 20.4H48.2437ZM27.6 24C27.6 25.125 27.6562 26.325 27.7687 27.6H21.3562C21.0187 26.3625 20.85 25.1625 20.85 24C20.85 22.8375 21.0187 21.6375 21.3562 20.4H27.7687C27.6562 21.6375 27.6 22.8375 27.6 24ZM29.85 29.4H39.75C39.3375 31.95 38.6812 34.0125 37.7812 35.5875C36.8812 37.1625 35.8875 37.95 34.8 37.95C33.7125 37.95 32.7187 37.1625 31.8187 35.5875C30.9187 34.0125 30.2625 31.95 29.85 29.4ZM38.7937 37.3875C40.1437 35.5125 41.0812 32.85 41.6062 29.4H47.6812C46.8562 31.3125 45.6562 32.9813 44.0812 34.4063C42.5437 35.7938 40.7812 36.7875 38.7937 37.3875ZM21.9187 29.4H27.9937C28.5562 32.85 29.4937 35.5125 30.8062 37.3875C28.8187 36.7875 27.0375 35.7938 25.4625 34.4063C23.925 32.9813 22.7437 31.3125 21.9187 29.4Z" fill="white"/>
</g>
<defs>
<clipPath id="clip0_135_96">
<rect width="69.6" height="48" fill="white"/>
</clipPath>
</defs>
</svg>
