<svg width="56" height="56" viewBox="0 0 56 56" fill="none" xmlns="http://www.w3.org/2000/svg">
<circle cx="28" cy="28" r="28" transform="rotate(-180 28 28)" fill="white"/>
<path opacity="0.8" d="M28.2813 38.2187C28 38.4687 27.7344 38.4687 27.4844 38.2187L17.6875 28.375C17.4063 28.125 17.4063 27.875 17.6875 27.625L27.4844 17.7812C27.7344 17.5312 28 17.5312 28.2813 17.7812L29.2188 18.7187C29.3125 18.8125 29.3594 18.9375 29.3594 19.0937C29.3594 19.25 29.3125 19.3906 29.2188 19.5156L21.9531 26.7812L37.9375 26.7812C38.3125 26.7812 38.5 26.9687 38.5 27.3437L38.5 28.6562C38.5 29.0312 38.3125 29.2187 37.9375 29.2187L21.9531 29.2187L29.2188 36.4844C29.4688 36.7656 29.4688 37.0312 29.2188 37.2812L28.2813 38.2187Z" fill="#9CA5B6"/>
</svg>
