<svg width="633" height="134" viewBox="0 0 633 134" fill="none" xmlns="http://www.w3.org/2000/svg">
<path d="M375.603 67H596L571.397 129H351L375.603 67Z" fill="#F7D73B"/>
<g filter="url(#filter0_d_14_414)">
<path d="M13.614 42.894H24.194V48H7.174V15.892H13.614V42.894ZM51.9773 34.706C51.9773 35.626 51.916 36.454 51.7933 37.19H33.1633C33.3166 39.03 33.9606 40.4713 35.0953 41.514C36.2299 42.5567 37.6253 43.078 39.2813 43.078C41.6733 43.078 43.3753 42.0507 44.3873 39.996H51.3333C50.5973 42.4493 49.1866 44.4733 47.1013 46.068C45.0159 47.632 42.4553 48.414 39.4193 48.414C36.9659 48.414 34.7579 47.8773 32.7953 46.804C30.8633 45.7 29.3453 44.1513 28.2413 42.158C27.1679 40.1647 26.6313 37.8647 26.6313 35.258C26.6313 32.6207 27.1679 30.3053 28.2413 28.312C29.3146 26.3187 30.8173 24.7853 32.7493 23.712C34.6813 22.6387 36.9046 22.102 39.4193 22.102C41.8419 22.102 44.0039 22.6233 45.9053 23.666C47.8373 24.7087 49.3246 26.196 50.3673 28.128C51.4406 30.0293 51.9773 32.222 51.9773 34.706ZM45.3073 32.866C45.2766 31.21 44.6786 29.8913 43.5133 28.91C42.3479 27.898 40.9219 27.392 39.2353 27.392C37.6406 27.392 36.2913 27.8827 35.1873 28.864C34.1139 29.8147 33.4546 31.1487 33.2093 32.866H45.3073ZM55.0219 35.166C55.0219 32.59 55.5279 30.3053 56.5399 28.312C57.5826 26.3187 58.9779 24.7853 60.7259 23.712C62.5046 22.6387 64.4826 22.102 66.6599 22.102C68.5612 22.102 70.2172 22.4853 71.6279 23.252C73.0692 24.0187 74.2192 24.9847 75.0779 26.15V22.516H81.5639V48H75.0779V44.274C74.2499 45.47 73.0999 46.4667 71.6279 47.264C70.1866 48.0307 68.5152 48.414 66.6139 48.414C64.4672 48.414 62.5046 47.862 60.7259 46.758C58.9779 45.654 57.5826 44.1053 56.5399 42.112C55.5279 40.088 55.0219 37.7727 55.0219 35.166ZM75.0779 35.258C75.0779 33.694 74.7712 32.36 74.1579 31.256C73.5446 30.1213 72.7166 29.2627 71.6739 28.68C70.6312 28.0667 69.5119 27.76 68.3159 27.76C67.1199 27.76 66.0159 28.0513 65.0039 28.634C63.9919 29.2167 63.1639 30.0753 62.5199 31.21C61.9066 32.314 61.5999 33.6327 61.5999 35.166C61.5999 36.6993 61.9066 38.0487 62.5199 39.214C63.1639 40.3487 63.9919 41.2227 65.0039 41.836C66.0466 42.4493 67.1506 42.756 68.3159 42.756C69.5119 42.756 70.6312 42.4647 71.6739 41.882C72.7166 41.2687 73.5446 40.41 74.1579 39.306C74.7712 38.1713 75.0779 36.822 75.0779 35.258ZM94.2937 26.472C95.1217 25.1227 96.195 24.0647 97.5137 23.298C98.863 22.5313 100.396 22.148 102.114 22.148V28.91H100.412C98.3877 28.91 96.8544 29.3853 95.8117 30.336C94.7997 31.2867 94.2937 32.9427 94.2937 35.304V48H87.8537V22.516H94.2937V26.472ZM120.573 22.148C123.609 22.148 126.063 23.114 127.933 25.046C129.804 26.9473 130.739 29.6153 130.739 33.05V48H124.299V33.924C124.299 31.9 123.793 30.3513 122.781 29.278C121.769 28.174 120.389 27.622 118.641 27.622C116.863 27.622 115.452 28.174 114.409 29.278C113.397 30.3513 112.891 31.9 112.891 33.924V48H106.451V22.516H112.891V25.69C113.75 24.586 114.839 23.7273 116.157 23.114C117.507 22.47 118.979 22.148 120.573 22.148ZM159.508 27.806H155.046V48H148.514V27.806H145.616V22.516H148.514V21.228C148.514 18.1 149.404 15.8 151.182 14.328C152.961 12.856 155.644 12.166 159.232 12.258V17.686C157.668 17.6553 156.58 17.916 155.966 18.468C155.353 19.02 155.046 20.0167 155.046 21.458V22.516H159.508V27.806ZM170.122 26.472C170.95 25.1227 172.023 24.0647 173.342 23.298C174.691 22.5313 176.224 22.148 177.942 22.148V28.91H176.24C174.216 28.91 172.682 29.3853 171.64 30.336C170.628 31.2867 170.122 32.9427 170.122 35.304V48H163.682V22.516H170.122V26.472ZM205.969 34.706C205.969 35.626 205.908 36.454 205.785 37.19H187.155C187.309 39.03 187.953 40.4713 189.087 41.514C190.222 42.5567 191.617 43.078 193.273 43.078C195.665 43.078 197.367 42.0507 198.379 39.996H205.325C204.589 42.4493 203.179 44.4733 201.093 46.068C199.008 47.632 196.447 48.414 193.411 48.414C190.958 48.414 188.75 47.8773 186.787 46.804C184.855 45.7 183.337 44.1513 182.233 42.158C181.16 40.1647 180.623 37.8647 180.623 35.258C180.623 32.6207 181.16 30.3053 182.233 28.312C183.307 26.3187 184.809 24.7853 186.741 23.712C188.673 22.6387 190.897 22.102 193.411 22.102C195.834 22.102 197.996 22.6233 199.897 23.666C201.829 24.7087 203.317 26.196 204.359 28.128C205.433 30.0293 205.969 32.222 205.969 34.706ZM199.299 32.866C199.269 31.21 198.671 29.8913 197.505 28.91C196.34 27.898 194.914 27.392 193.227 27.392C191.633 27.392 190.283 27.8827 189.179 28.864C188.106 29.8147 187.447 31.1487 187.201 32.866H199.299ZM224.792 22.148C227.828 22.148 230.281 23.114 232.152 25.046C234.023 26.9473 234.958 29.6153 234.958 33.05V48H228.518V33.924C228.518 31.9 228.012 30.3513 227 29.278C225.988 28.174 224.608 27.622 222.86 27.622C221.081 27.622 219.671 28.174 218.628 29.278C217.616 30.3513 217.11 31.9 217.11 33.924V48H210.67V22.516H217.11V25.69C217.969 24.586 219.057 23.7273 220.376 23.114C221.725 22.47 223.197 22.148 224.792 22.148ZM239.426 35.258C239.426 32.6207 239.963 30.3207 241.036 28.358C242.11 26.3647 243.597 24.8313 245.498 23.758C247.4 22.654 249.577 22.102 252.03 22.102C255.189 22.102 257.796 22.8993 259.85 24.494C261.936 26.058 263.331 28.266 264.036 31.118H257.09C256.722 30.014 256.094 29.1553 255.204 28.542C254.346 27.898 253.272 27.576 251.984 27.576C250.144 27.576 248.688 28.2507 247.614 29.6C246.541 30.9187 246.004 32.8047 246.004 35.258C246.004 37.6807 246.541 39.5667 247.614 40.916C248.688 42.2347 250.144 42.894 251.984 42.894C254.591 42.894 256.293 41.7287 257.09 39.398H264.036C263.331 42.158 261.936 44.3507 259.85 45.976C257.765 47.6013 255.158 48.414 252.03 48.414C249.577 48.414 247.4 47.8773 245.498 46.804C243.597 45.7 242.11 44.1667 241.036 42.204C239.963 40.2107 239.426 37.8953 239.426 35.258ZM283.106 22.148C285.038 22.148 286.755 22.5773 288.258 23.436C289.761 24.264 290.926 25.506 291.754 27.162C292.613 28.7873 293.042 30.75 293.042 33.05V48H286.602V33.924C286.602 31.9 286.096 30.3513 285.084 29.278C284.072 28.174 282.692 27.622 280.944 27.622C279.165 27.622 277.755 28.174 276.712 29.278C275.7 30.3513 275.194 31.9 275.194 33.924V48H268.754V13.96H275.194V25.69C276.022 24.586 277.126 23.7273 278.506 23.114C279.886 22.47 281.419 22.148 283.106 22.148ZM334.185 22.516V48H327.699V44.78C326.871 45.884 325.782 46.758 324.433 47.402C323.114 48.0153 321.673 48.322 320.109 48.322C318.116 48.322 316.352 47.908 314.819 47.08C313.286 46.2213 312.074 44.9793 311.185 43.354C310.326 41.698 309.897 39.7353 309.897 37.466V22.516H316.337V36.546C316.337 38.57 316.843 40.134 317.855 41.238C318.867 42.3113 320.247 42.848 321.995 42.848C323.774 42.848 325.169 42.3113 326.181 41.238C327.193 40.134 327.699 38.57 327.699 36.546V22.516H334.185ZM350.291 48.414C348.206 48.414 346.335 48.046 344.679 47.31C343.023 46.5433 341.705 45.516 340.723 44.228C339.773 42.94 339.251 41.514 339.159 39.95H345.645C345.768 40.9313 346.243 41.744 347.071 42.388C347.93 43.032 348.988 43.354 350.245 43.354C351.472 43.354 352.423 43.1087 353.097 42.618C353.803 42.1273 354.155 41.4987 354.155 40.732C354.155 39.904 353.726 39.2907 352.867 38.892C352.039 38.4627 350.705 38.0027 348.865 37.512C346.964 37.052 345.4 36.5767 344.173 36.086C342.977 35.5953 341.935 34.844 341.045 33.832C340.187 32.82 339.757 31.4553 339.757 29.738C339.757 28.3273 340.156 27.0393 340.953 25.874C341.781 24.7087 342.947 23.7887 344.449 23.114C345.983 22.4393 347.777 22.102 349.831 22.102C352.867 22.102 355.29 22.8687 357.099 24.402C358.909 25.9047 359.905 27.944 360.089 30.52H353.925C353.833 29.508 353.404 28.7107 352.637 28.128C351.901 27.5147 350.905 27.208 349.647 27.208C348.482 27.208 347.577 27.4227 346.933 27.852C346.32 28.2813 346.013 28.8793 346.013 29.646C346.013 30.5047 346.443 31.164 347.301 31.624C348.16 32.0533 349.494 32.498 351.303 32.958C353.143 33.418 354.661 33.8933 355.857 34.384C357.053 34.8747 358.081 35.6413 358.939 36.684C359.829 37.696 360.289 39.0453 360.319 40.732C360.319 42.204 359.905 43.5227 359.077 44.688C358.28 45.8533 357.115 46.7733 355.581 47.448C354.079 48.092 352.315 48.414 350.291 48.414ZM368.872 19.48C367.737 19.48 366.786 19.1273 366.02 18.422C365.284 17.686 364.916 16.7813 364.916 15.708C364.916 14.6347 365.284 13.7453 366.02 13.04C366.786 12.304 367.737 11.936 368.872 11.936C370.006 11.936 370.942 12.304 371.678 13.04C372.444 13.7453 372.828 14.6347 372.828 15.708C372.828 16.7813 372.444 17.686 371.678 18.422C370.942 19.1273 370.006 19.48 368.872 19.48ZM372.046 22.516V48H365.606V22.516H372.046ZM392.53 22.148C395.566 22.148 398.02 23.114 399.89 25.046C401.761 26.9473 402.696 29.6153 402.696 33.05V48H396.256V33.924C396.256 31.9 395.75 30.3513 394.738 29.278C393.726 28.174 392.346 27.622 390.598 27.622C388.82 27.622 387.409 28.174 386.366 29.278C385.354 30.3513 384.848 31.9 384.848 33.924V48H378.408V22.516H384.848V25.69C385.707 24.586 386.796 23.7273 388.114 23.114C389.464 22.47 390.936 22.148 392.53 22.148ZM418.802 22.102C420.704 22.102 422.375 22.4853 423.816 23.252C425.258 23.988 426.392 24.954 427.22 26.15V22.516H433.706V48.184C433.706 50.5453 433.231 52.646 432.28 54.486C431.33 56.3567 429.904 57.8287 428.002 58.902C426.101 60.006 423.801 60.558 421.102 60.558C417.484 60.558 414.509 59.7147 412.178 58.028C409.878 56.3413 408.575 54.0413 408.268 51.128H414.662C415 52.2933 415.72 53.2133 416.824 53.888C417.959 54.5933 419.324 54.946 420.918 54.946C422.789 54.946 424.307 54.3787 425.472 53.244C426.638 52.14 427.22 50.4533 427.22 48.184V44.228C426.392 45.424 425.242 46.4207 423.77 47.218C422.329 48.0153 420.673 48.414 418.802 48.414C416.656 48.414 414.693 47.862 412.914 46.758C411.136 45.654 409.725 44.1053 408.682 42.112C407.67 40.088 407.164 37.7727 407.164 35.166C407.164 32.59 407.67 30.3053 408.682 28.312C409.725 26.3187 411.12 24.7853 412.868 23.712C414.647 22.6387 416.625 22.102 418.802 22.102ZM427.22 35.258C427.22 33.694 426.914 32.36 426.3 31.256C425.687 30.1213 424.859 29.2627 423.816 28.68C422.774 28.0667 421.654 27.76 420.458 27.76C419.262 27.76 418.158 28.0513 417.146 28.634C416.134 29.2167 415.306 30.0753 414.662 31.21C414.049 32.314 413.742 33.6327 413.742 35.166C413.742 36.6993 414.049 38.0487 414.662 39.214C415.306 40.3487 416.134 41.2227 417.146 41.836C418.189 42.4493 419.293 42.756 420.458 42.756C421.654 42.756 422.774 42.4647 423.816 41.882C424.859 41.2687 425.687 40.41 426.3 39.306C426.914 38.1713 427.22 36.822 427.22 35.258ZM449.301 35.166C449.301 32.59 449.807 30.3053 450.819 28.312C451.862 26.3187 453.257 24.7853 455.005 23.712C456.784 22.6387 458.762 22.102 460.939 22.102C462.841 22.102 464.497 22.4853 465.907 23.252C467.349 24.0187 468.499 24.9847 469.357 26.15V22.516H475.843V48H469.357V44.274C468.529 45.47 467.379 46.4667 465.907 47.264C464.466 48.0307 462.795 48.414 460.893 48.414C458.747 48.414 456.784 47.862 455.005 46.758C453.257 45.654 451.862 44.1053 450.819 42.112C449.807 40.088 449.301 37.7727 449.301 35.166ZM469.357 35.258C469.357 33.694 469.051 32.36 468.437 31.256C467.824 30.1213 466.996 29.2627 465.953 28.68C464.911 28.0667 463.791 27.76 462.595 27.76C461.399 27.76 460.295 28.0513 459.283 28.634C458.271 29.2167 457.443 30.0753 456.799 31.21C456.186 32.314 455.879 33.6327 455.879 35.166C455.879 36.6993 456.186 38.0487 456.799 39.214C457.443 40.3487 458.271 41.2227 459.283 41.836C460.326 42.4493 461.43 42.756 462.595 42.756C463.791 42.756 464.911 42.4647 465.953 41.882C466.996 41.2687 467.824 40.41 468.437 39.306C469.051 38.1713 469.357 36.822 469.357 35.258ZM496.255 22.148C499.291 22.148 501.744 23.114 503.615 25.046C505.486 26.9473 506.421 29.6153 506.421 33.05V48H499.981V33.924C499.981 31.9 499.475 30.3513 498.463 29.278C497.451 28.174 496.071 27.622 494.323 27.622C492.544 27.622 491.134 28.174 490.091 29.278C489.079 30.3513 488.573 31.9 488.573 33.924V48H482.133V22.516H488.573V25.69C489.432 24.586 490.52 23.7273 491.839 23.114C493.188 22.47 494.66 22.148 496.255 22.148ZM536.925 22.516L521.147 60.052H514.293L519.813 47.356L509.601 22.516H516.823L523.401 40.318L530.071 22.516H536.925ZM32.704 79.892L21.848 100.822V112H15.408V100.822L4.506 79.892H11.774L18.674 94.566L25.528 79.892H32.704ZM47.7341 112.414C45.2808 112.414 43.0728 111.877 41.1101 110.804C39.1475 109.7 37.5988 108.151 36.4641 106.158C35.3601 104.165 34.8081 101.865 34.8081 99.258C34.8081 96.6513 35.3755 94.3513 36.5101 92.358C37.6755 90.3647 39.2548 88.8313 41.2481 87.758C43.2415 86.654 45.4648 86.102 47.9181 86.102C50.3715 86.102 52.5948 86.654 54.5881 87.758C56.5815 88.8313 58.1455 90.3647 59.2801 92.358C60.4455 94.3513 61.0281 96.6513 61.0281 99.258C61.0281 101.865 60.4301 104.165 59.2341 106.158C58.0688 108.151 56.4741 109.7 54.4501 110.804C52.4568 111.877 50.2181 112.414 47.7341 112.414ZM47.7341 106.802C48.8995 106.802 49.9881 106.526 51.0001 105.974C52.0428 105.391 52.8708 104.533 53.4841 103.398C54.0975 102.263 54.4041 100.883 54.4041 99.258C54.4041 96.8353 53.7601 94.98 52.4721 93.692C51.2148 92.3733 49.6661 91.714 47.8261 91.714C45.9861 91.714 44.4375 92.3733 43.1801 93.692C41.9535 94.98 41.3401 96.8353 41.3401 99.258C41.3401 101.681 41.9381 103.551 43.1341 104.87C44.3608 106.158 45.8941 106.802 47.7341 106.802ZM89.8101 86.516V112H83.3241V108.78C82.4961 109.884 81.4075 110.758 80.0581 111.402C78.7395 112.015 77.2981 112.322 75.7341 112.322C73.7408 112.322 71.9775 111.908 70.4441 111.08C68.9108 110.221 67.6995 108.979 66.8101 107.354C65.9515 105.698 65.5221 103.735 65.5221 101.466V86.516H71.9621V100.546C71.9621 102.57 72.4681 104.134 73.4801 105.238C74.4921 106.311 75.8721 106.848 77.6201 106.848C79.3988 106.848 80.7941 106.311 81.8061 105.238C82.8181 104.134 83.3241 102.57 83.3241 100.546V86.516H89.8101ZM118.014 79.892V85.09H109.458V112H103.018V85.09H94.4622V79.892H118.014ZM146.771 86.516V112H140.285V108.78C139.457 109.884 138.368 110.758 137.019 111.402C135.7 112.015 134.259 112.322 132.695 112.322C130.702 112.322 128.938 111.908 127.405 111.08C125.872 110.221 124.66 108.979 123.771 107.354C122.912 105.698 122.483 103.735 122.483 101.466V86.516H128.923V100.546C128.923 102.57 129.429 104.134 130.441 105.238C131.453 106.311 132.833 106.848 134.581 106.848C136.36 106.848 137.755 106.311 138.767 105.238C139.779 104.134 140.285 102.57 140.285 100.546V86.516H146.771ZM159.565 90.242C160.393 89.0153 161.528 88.0187 162.969 87.252C164.441 86.4853 166.113 86.102 167.983 86.102C170.161 86.102 172.123 86.6387 173.871 87.712C175.65 88.7853 177.045 90.3187 178.057 92.312C179.1 94.2747 179.621 96.5593 179.621 99.166C179.621 101.773 179.1 104.088 178.057 106.112C177.045 108.105 175.65 109.654 173.871 110.758C172.123 111.862 170.161 112.414 167.983 112.414C166.082 112.414 164.411 112.046 162.969 111.31C161.559 110.543 160.424 109.562 159.565 108.366V112H153.125V77.96H159.565V90.242ZM173.043 99.166C173.043 97.6327 172.721 96.314 172.077 95.21C171.464 94.0753 170.636 93.2167 169.593 92.634C168.581 92.0513 167.477 91.76 166.281 91.76C165.116 91.76 164.012 92.0667 162.969 92.68C161.957 93.2627 161.129 94.1213 160.485 95.256C159.872 96.3907 159.565 97.7247 159.565 99.258C159.565 100.791 159.872 102.125 160.485 103.26C161.129 104.395 161.957 105.269 162.969 105.882C164.012 106.465 165.116 106.756 166.281 106.756C167.477 106.756 168.581 106.449 169.593 105.836C170.636 105.223 171.464 104.349 172.077 103.214C172.721 102.079 173.043 100.73 173.043 99.166ZM207.991 98.706C207.991 99.626 207.93 100.454 207.807 101.19H189.177C189.33 103.03 189.974 104.471 191.109 105.514C192.244 106.557 193.639 107.078 195.295 107.078C197.687 107.078 199.389 106.051 200.401 103.996H207.347C206.611 106.449 205.2 108.473 203.115 110.068C201.03 111.632 198.469 112.414 195.433 112.414C192.98 112.414 190.772 111.877 188.809 110.804C186.877 109.7 185.359 108.151 184.255 106.158C183.182 104.165 182.645 101.865 182.645 99.258C182.645 96.6207 183.182 94.3053 184.255 92.312C185.328 90.3187 186.831 88.7853 188.763 87.712C190.695 86.6387 192.918 86.102 195.433 86.102C197.856 86.102 200.018 86.6233 201.919 87.666C203.851 88.7087 205.338 90.196 206.381 92.128C207.454 94.0293 207.991 96.222 207.991 98.706ZM201.321 96.866C201.29 95.21 200.692 93.8913 199.527 92.91C198.362 91.898 196.936 91.392 195.249 91.392C193.654 91.392 192.305 91.8827 191.201 92.864C190.128 93.8147 189.468 95.1487 189.223 96.866H201.321ZM234.279 106.066L240.719 86.516H247.573L238.143 112H230.323L220.939 86.516H227.839L234.279 106.066ZM254.456 83.48C253.321 83.48 252.37 83.1273 251.604 82.422C250.868 81.686 250.5 80.7813 250.5 79.708C250.5 78.6347 250.868 77.7453 251.604 77.04C252.37 76.304 253.321 75.936 254.456 75.936C255.59 75.936 256.526 76.304 257.262 77.04C258.028 77.7453 258.412 78.6347 258.412 79.708C258.412 80.7813 258.028 81.686 257.262 82.422C256.526 83.1273 255.59 83.48 254.456 83.48ZM257.63 86.516V112H251.19V86.516H257.63ZM262.336 99.166C262.336 96.59 262.842 94.3053 263.854 92.312C264.897 90.3187 266.308 88.7853 268.086 87.712C269.865 86.6387 271.843 86.102 274.02 86.102C275.676 86.102 277.256 86.47 278.758 87.206C280.261 87.9113 281.457 88.862 282.346 90.058V77.96H288.878V112H282.346V108.228C281.549 109.485 280.43 110.497 278.988 111.264C277.547 112.031 275.876 112.414 273.974 112.414C271.828 112.414 269.865 111.862 268.086 110.758C266.308 109.654 264.897 108.105 263.854 106.112C262.842 104.088 262.336 101.773 262.336 99.166ZM282.392 99.258C282.392 97.694 282.086 96.36 281.472 95.256C280.859 94.1213 280.031 93.2627 278.988 92.68C277.946 92.0667 276.826 91.76 275.63 91.76C274.434 91.76 273.33 92.0513 272.318 92.634C271.306 93.2167 270.478 94.0753 269.834 95.21C269.221 96.314 268.914 97.6327 268.914 99.166C268.914 100.699 269.221 102.049 269.834 103.214C270.478 104.349 271.306 105.223 272.318 105.836C273.361 106.449 274.465 106.756 275.63 106.756C276.826 106.756 277.946 106.465 278.988 105.882C280.031 105.269 280.859 104.41 281.472 103.306C282.086 102.171 282.392 100.822 282.392 99.258ZM318.858 98.706C318.858 99.626 318.797 100.454 318.674 101.19H300.044C300.197 103.03 300.841 104.471 301.976 105.514C303.111 106.557 304.506 107.078 306.162 107.078C308.554 107.078 310.256 106.051 311.268 103.996H318.214C317.478 106.449 316.067 108.473 313.982 110.068C311.897 111.632 309.336 112.414 306.3 112.414C303.847 112.414 301.639 111.877 299.676 110.804C297.744 109.7 296.226 108.151 295.122 106.158C294.049 104.165 293.512 101.865 293.512 99.258C293.512 96.6207 294.049 94.3053 295.122 92.312C296.195 90.3187 297.698 88.7853 299.63 87.712C301.562 86.6387 303.785 86.102 306.3 86.102C308.723 86.102 310.885 86.6233 312.786 87.666C314.718 88.7087 316.205 90.196 317.248 92.128C318.321 94.0293 318.858 96.222 318.858 98.706ZM312.188 96.866C312.157 95.21 311.559 93.8913 310.394 92.91C309.229 91.898 307.803 91.392 306.116 91.392C304.521 91.392 303.172 91.8827 302.068 92.864C300.995 93.8147 300.335 95.1487 300.09 96.866H312.188ZM334.875 112.414C332.421 112.414 330.213 111.877 328.251 110.804C326.288 109.7 324.739 108.151 323.605 106.158C322.501 104.165 321.949 101.865 321.949 99.258C321.949 96.6513 322.516 94.3513 323.651 92.358C324.816 90.3647 326.395 88.8313 328.389 87.758C330.382 86.654 332.605 86.102 335.059 86.102C337.512 86.102 339.735 86.654 341.729 87.758C343.722 88.8313 345.286 90.3647 346.421 92.358C347.586 94.3513 348.169 96.6513 348.169 99.258C348.169 101.865 347.571 104.165 346.375 106.158C345.209 108.151 343.615 109.7 341.591 110.804C339.597 111.877 337.359 112.414 334.875 112.414ZM334.875 106.802C336.04 106.802 337.129 106.526 338.141 105.974C339.183 105.391 340.011 104.533 340.625 103.398C341.238 102.263 341.545 100.883 341.545 99.258C341.545 96.8353 340.901 94.98 339.613 93.692C338.355 92.3733 336.807 91.714 334.967 91.714C333.127 91.714 331.578 92.3733 330.321 93.692C329.094 94.98 328.481 96.8353 328.481 99.258C328.481 101.681 329.079 103.551 330.275 104.87C331.501 106.158 333.035 106.802 334.875 106.802ZM397.46 91.806H392.998V112H386.466V91.806H383.568V86.516H386.466V85.228C386.466 82.1 387.355 79.8 389.134 78.328C390.912 76.856 393.596 76.166 397.184 76.258V81.686C395.62 81.6553 394.531 81.916 393.918 82.468C393.304 83.02 392.998 84.0167 392.998 85.458V86.516H397.46V91.806ZM412.949 112.414C410.496 112.414 408.288 111.877 406.325 110.804C404.362 109.7 402.814 108.151 401.679 106.158C400.575 104.165 400.023 101.865 400.023 99.258C400.023 96.6513 400.59 94.3513 401.725 92.358C402.89 90.3647 404.47 88.8313 406.463 87.758C408.456 86.654 410.68 86.102 413.133 86.102C415.586 86.102 417.81 86.654 419.803 87.758C421.796 88.8313 423.36 90.3647 424.495 92.358C425.66 94.3513 426.243 96.6513 426.243 99.258C426.243 101.865 425.645 104.165 424.449 106.158C423.284 108.151 421.689 109.7 419.665 110.804C417.672 111.877 415.433 112.414 412.949 112.414ZM412.949 106.802C414.114 106.802 415.203 106.526 416.215 105.974C417.258 105.391 418.086 104.533 418.699 103.398C419.312 102.263 419.619 100.883 419.619 99.258C419.619 96.8353 418.975 94.98 417.687 93.692C416.43 92.3733 414.881 91.714 413.041 91.714C411.201 91.714 409.652 92.3733 408.395 93.692C407.168 94.98 406.555 96.8353 406.555 99.258C406.555 101.681 407.153 103.551 408.349 104.87C409.576 106.158 411.109 106.802 412.949 106.802ZM437.407 90.472C438.235 89.1227 439.308 88.0647 440.627 87.298C441.976 86.5313 443.51 86.148 445.227 86.148V92.91H443.525C441.501 92.91 439.968 93.3853 438.925 94.336C437.913 95.2867 437.407 96.9427 437.407 99.304V112H430.967V86.516H437.407V90.472ZM472.21 91.806H467.748V112H461.216V91.806H458.318V86.516H461.216V85.228C461.216 82.1 462.105 79.8 463.884 78.328C465.662 76.856 468.346 76.166 471.934 76.258V81.686C470.37 81.6553 469.281 81.916 468.668 82.468C468.054 83.02 467.748 84.0167 467.748 85.458V86.516H472.21V91.806ZM482.823 90.472C483.651 89.1227 484.724 88.0647 486.043 87.298C487.392 86.5313 488.926 86.148 490.643 86.148V92.91H488.941C486.917 92.91 485.384 93.3853 484.341 94.336C483.329 95.2867 482.823 96.9427 482.823 99.304V112H476.383V86.516H482.823V90.472ZM518.671 98.706C518.671 99.626 518.609 100.454 518.487 101.19H499.857C500.01 103.03 500.654 104.471 501.789 105.514C502.923 106.557 504.319 107.078 505.975 107.078C508.367 107.078 510.069 106.051 511.081 103.996H518.027C517.291 106.449 515.88 108.473 513.795 110.068C511.709 111.632 509.149 112.414 506.113 112.414C503.659 112.414 501.451 111.877 499.489 110.804C497.557 109.7 496.039 108.151 494.935 106.158C493.861 104.165 493.325 101.865 493.325 99.258C493.325 96.6207 493.861 94.3053 494.935 92.312C496.008 90.3187 497.511 88.7853 499.443 87.712C501.375 86.6387 503.598 86.102 506.113 86.102C508.535 86.102 510.697 86.6233 512.599 87.666C514.531 88.7087 516.018 90.196 517.061 92.128C518.134 94.0293 518.671 96.222 518.671 98.706ZM512.001 96.866C511.97 95.21 511.372 93.8913 510.207 92.91C509.041 91.898 507.615 91.392 505.929 91.392C504.334 91.392 502.985 91.8827 501.881 92.864C500.807 93.8147 500.148 95.1487 499.903 96.866H512.001ZM547.061 98.706C547.061 99.626 547 100.454 546.877 101.19H528.247C528.401 103.03 529.045 104.471 530.179 105.514C531.314 106.557 532.709 107.078 534.365 107.078C536.757 107.078 538.459 106.051 539.471 103.996H546.417C545.681 106.449 544.271 108.473 542.185 110.068C540.1 111.632 537.539 112.414 534.503 112.414C532.05 112.414 529.842 111.877 527.879 110.804C525.947 109.7 524.429 108.151 523.325 106.158C522.252 104.165 521.715 101.865 521.715 99.258C521.715 96.6207 522.252 94.3053 523.325 92.312C524.399 90.3187 525.901 88.7853 527.833 87.712C529.765 86.6387 531.989 86.102 534.503 86.102C536.926 86.102 539.088 86.6233 540.989 87.666C542.921 88.7087 544.409 90.196 545.451 92.128C546.525 94.0293 547.061 96.222 547.061 98.706ZM540.391 96.866C540.361 95.21 539.763 93.8913 538.597 92.91C537.432 91.898 536.006 91.392 534.319 91.392C532.725 91.392 531.375 91.8827 530.271 92.864C529.198 93.8147 528.539 95.1487 528.293 96.866H540.391ZM560.088 79.34L559.352 101.558H553.924L553.142 79.34H560.088ZM556.776 112.322C555.611 112.322 554.645 111.969 553.878 111.264C553.142 110.528 552.774 109.623 552.774 108.55C552.774 107.477 553.142 106.587 553.878 105.882C554.645 105.146 555.611 104.778 556.776 104.778C557.911 104.778 558.846 105.146 559.582 105.882C560.318 106.587 560.686 107.477 560.686 108.55C560.686 109.623 560.318 110.528 559.582 111.264C558.846 111.969 557.911 112.322 556.776 112.322Z" fill="#1F242D"/>
</g>
<defs>
<filter id="filter0_d_14_414" x="0.505981" y="11.936" width="564.18" height="108.478" filterUnits="userSpaceOnUse" color-interpolation-filters="sRGB">
<feFlood flood-opacity="0" result="BackgroundImageFix"/>
<feColorMatrix in="SourceAlpha" type="matrix" values="0 0 0 0 0 0 0 0 0 0 0 0 0 0 0 0 0 0 127 0" result="hardAlpha"/>
<feOffset dy="4"/>
<feGaussianBlur stdDeviation="2"/>
<feComposite in2="hardAlpha" operator="out"/>
<feColorMatrix type="matrix" values="0 0 0 0 0 0 0 0 0 0 0 0 0 0 0 0 0 0 0.04 0"/>
<feBlend mode="normal" in2="BackgroundImageFix" result="effect1_dropShadow_14_414"/>
<feBlend mode="normal" in="SourceGraphic" in2="effect1_dropShadow_14_414" result="shape"/>
</filter>
</defs>
</svg>
