<svg width="596" height="134" viewBox="0 0 596 134" fill="none" xmlns="http://www.w3.org/2000/svg">
<path d="M375.603 67H596L571.397 129H351L375.603 67Z" fill="#F7D73B"/>
<g filter="url(#filter0_d_14_399)">
<path d="M13.614 42.894H24.194V48H7.174V15.892H13.614V42.894ZM51.9773 34.706C51.9773 35.626 51.916 36.454 51.7933 37.19H33.1633C33.3166 39.03 33.9606 40.4713 35.0953 41.514C36.2299 42.5567 37.6253 43.078 39.2813 43.078C41.6733 43.078 43.3753 42.0507 44.3873 39.996H51.3333C50.5973 42.4493 49.1866 44.4733 47.1013 46.068C45.0159 47.632 42.4553 48.414 39.4193 48.414C36.9659 48.414 34.7579 47.8773 32.7953 46.804C30.8633 45.7 29.3453 44.1513 28.2413 42.158C27.1679 40.1647 26.6313 37.8647 26.6313 35.258C26.6313 32.6207 27.1679 30.3053 28.2413 28.312C29.3146 26.3187 30.8173 24.7853 32.7493 23.712C34.6813 22.6387 36.9046 22.102 39.4193 22.102C41.8419 22.102 44.0039 22.6233 45.9053 23.666C47.8373 24.7087 49.3246 26.196 50.3673 28.128C51.4406 30.0293 51.9773 32.222 51.9773 34.706ZM45.3073 32.866C45.2766 31.21 44.6786 29.8913 43.5133 28.91C42.3479 27.898 40.9219 27.392 39.2353 27.392C37.6406 27.392 36.2913 27.8827 35.1873 28.864C34.1139 29.8147 33.4546 31.1487 33.2093 32.866H45.3073ZM55.0219 35.166C55.0219 32.59 55.5279 30.3053 56.5399 28.312C57.5826 26.3187 58.9779 24.7853 60.7259 23.712C62.5046 22.6387 64.4826 22.102 66.6599 22.102C68.5612 22.102 70.2172 22.4853 71.6279 23.252C73.0692 24.0187 74.2192 24.9847 75.0779 26.15V22.516H81.5639V48H75.0779V44.274C74.2499 45.47 73.0999 46.4667 71.6279 47.264C70.1866 48.0307 68.5152 48.414 66.6139 48.414C64.4672 48.414 62.5046 47.862 60.7259 46.758C58.9779 45.654 57.5826 44.1053 56.5399 42.112C55.5279 40.088 55.0219 37.7727 55.0219 35.166ZM75.0779 35.258C75.0779 33.694 74.7712 32.36 74.1579 31.256C73.5446 30.1213 72.7166 29.2627 71.6739 28.68C70.6312 28.0667 69.5119 27.76 68.3159 27.76C67.1199 27.76 66.0159 28.0513 65.0039 28.634C63.9919 29.2167 63.1639 30.0753 62.5199 31.21C61.9066 32.314 61.5999 33.6327 61.5999 35.166C61.5999 36.6993 61.9066 38.0487 62.5199 39.214C63.1639 40.3487 63.9919 41.2227 65.0039 41.836C66.0466 42.4493 67.1506 42.756 68.3159 42.756C69.5119 42.756 70.6312 42.4647 71.6739 41.882C72.7166 41.2687 73.5446 40.41 74.1579 39.306C74.7712 38.1713 75.0779 36.822 75.0779 35.258ZM94.2937 26.472C95.1217 25.1227 96.195 24.0647 97.5137 23.298C98.863 22.5313 100.396 22.148 102.114 22.148V28.91H100.412C98.3877 28.91 96.8544 29.3853 95.8117 30.336C94.7997 31.2867 94.2937 32.9427 94.2937 35.304V48H87.8537V22.516H94.2937V26.472ZM120.573 22.148C123.609 22.148 126.063 23.114 127.933 25.046C129.804 26.9473 130.739 29.6153 130.739 33.05V48H124.299V33.924C124.299 31.9 123.793 30.3513 122.781 29.278C121.769 28.174 120.389 27.622 118.641 27.622C116.863 27.622 115.452 28.174 114.409 29.278C113.397 30.3513 112.891 31.9 112.891 33.924V48H106.451V22.516H112.891V25.69C113.75 24.586 114.839 23.7273 116.157 23.114C117.507 22.47 118.979 22.148 120.573 22.148ZM171.514 34.706C171.514 35.626 171.453 36.454 171.33 37.19H152.7C152.854 39.03 153.498 40.4713 154.632 41.514C155.767 42.5567 157.162 43.078 158.818 43.078C161.21 43.078 162.912 42.0507 163.924 39.996H170.87C170.134 42.4493 168.724 44.4733 166.638 46.068C164.553 47.632 161.992 48.414 158.956 48.414C156.503 48.414 154.295 47.8773 152.332 46.804C150.4 45.7 148.882 44.1513 147.778 42.158C146.705 40.1647 146.168 37.8647 146.168 35.258C146.168 32.6207 146.705 30.3053 147.778 28.312C148.852 26.3187 150.354 24.7853 152.286 23.712C154.218 22.6387 156.442 22.102 158.956 22.102C161.379 22.102 163.541 22.6233 165.442 23.666C167.374 24.7087 168.862 26.196 169.904 28.128C170.978 30.0293 171.514 32.222 171.514 34.706ZM164.844 32.866C164.814 31.21 164.216 29.8913 163.05 28.91C161.885 27.898 160.459 27.392 158.772 27.392C157.178 27.392 155.828 27.8827 154.724 28.864C153.651 29.8147 152.992 31.1487 152.746 32.866H164.844ZM190.337 22.148C193.373 22.148 195.826 23.114 197.697 25.046C199.568 26.9473 200.503 29.6153 200.503 33.05V48H194.063V33.924C194.063 31.9 193.557 30.3513 192.545 29.278C191.533 28.174 190.153 27.622 188.405 27.622C186.626 27.622 185.216 28.174 184.173 29.278C183.161 30.3513 182.655 31.9 182.655 33.924V48H176.215V22.516H182.655V25.69C183.514 24.586 184.602 23.7273 185.921 23.114C187.27 22.47 188.742 22.148 190.337 22.148ZM216.609 22.102C218.51 22.102 220.182 22.4853 221.623 23.252C223.064 23.988 224.199 24.954 225.027 26.15V22.516H231.513V48.184C231.513 50.5453 231.038 52.646 230.087 54.486C229.136 56.3567 227.71 57.8287 225.809 58.902C223.908 60.006 221.608 60.558 218.909 60.558C215.29 60.558 212.316 59.7147 209.985 58.028C207.685 56.3413 206.382 54.0413 206.075 51.128H212.469C212.806 52.2933 213.527 53.2133 214.631 53.888C215.766 54.5933 217.13 54.946 218.725 54.946C220.596 54.946 222.114 54.3787 223.279 53.244C224.444 52.14 225.027 50.4533 225.027 48.184V44.228C224.199 45.424 223.049 46.4207 221.577 47.218C220.136 48.0153 218.48 48.414 216.609 48.414C214.462 48.414 212.5 47.862 210.721 46.758C208.942 45.654 207.532 44.1053 206.489 42.112C205.477 40.088 204.971 37.7727 204.971 35.166C204.971 32.59 205.477 30.3053 206.489 28.312C207.532 26.3187 208.927 24.7853 210.675 23.712C212.454 22.6387 214.432 22.102 216.609 22.102ZM225.027 35.258C225.027 33.694 224.72 32.36 224.107 31.256C223.494 30.1213 222.666 29.2627 221.623 28.68C220.58 28.0667 219.461 27.76 218.265 27.76C217.069 27.76 215.965 28.0513 214.953 28.634C213.941 29.2167 213.113 30.0753 212.469 31.21C211.856 32.314 211.549 33.6327 211.549 35.166C211.549 36.6993 211.856 38.0487 212.469 39.214C213.113 40.3487 213.941 41.2227 214.953 41.836C215.996 42.4493 217.1 42.756 218.265 42.756C219.461 42.756 220.58 42.4647 221.623 41.882C222.666 41.2687 223.494 40.41 224.107 39.306C224.72 38.1713 225.027 36.822 225.027 35.258ZM244.243 13.96V48H237.803V13.96H244.243ZM253.872 19.48C252.737 19.48 251.786 19.1273 251.02 18.422C250.284 17.686 249.916 16.7813 249.916 15.708C249.916 14.6347 250.284 13.7453 251.02 13.04C251.786 12.304 252.737 11.936 253.872 11.936C255.006 11.936 255.942 12.304 256.678 13.04C257.444 13.7453 257.828 14.6347 257.828 15.708C257.828 16.7813 257.444 17.686 256.678 18.422C255.942 19.1273 255.006 19.48 253.872 19.48ZM257.046 22.516V48H250.606V22.516H257.046ZM273.16 48.414C271.075 48.414 269.204 48.046 267.548 47.31C265.892 46.5433 264.574 45.516 263.592 44.228C262.642 42.94 262.12 41.514 262.028 39.95H268.514C268.637 40.9313 269.112 41.744 269.94 42.388C270.799 43.032 271.857 43.354 273.114 43.354C274.341 43.354 275.292 43.1087 275.966 42.618C276.672 42.1273 277.024 41.4987 277.024 40.732C277.024 39.904 276.595 39.2907 275.736 38.892C274.908 38.4627 273.574 38.0027 271.734 37.512C269.833 37.052 268.269 36.5767 267.042 36.086C265.846 35.5953 264.804 34.844 263.914 33.832C263.056 32.82 262.626 31.4553 262.626 29.738C262.626 28.3273 263.025 27.0393 263.822 25.874C264.65 24.7087 265.816 23.7887 267.318 23.114C268.852 22.4393 270.646 22.102 272.7 22.102C275.736 22.102 278.159 22.8687 279.968 24.402C281.778 25.9047 282.774 27.944 282.958 30.52H276.794C276.702 29.508 276.273 28.7107 275.506 28.128C274.77 27.5147 273.774 27.208 272.516 27.208C271.351 27.208 270.446 27.4227 269.802 27.852C269.189 28.2813 268.882 28.8793 268.882 29.646C268.882 30.5047 269.312 31.164 270.17 31.624C271.029 32.0533 272.363 32.498 274.172 32.958C276.012 33.418 277.53 33.8933 278.726 34.384C279.922 34.8747 280.95 35.6413 281.808 36.684C282.698 37.696 283.158 39.0453 283.188 40.732C283.188 42.204 282.774 43.5227 281.946 44.688C281.149 45.8533 279.984 46.7733 278.45 47.448C276.948 48.092 275.184 48.414 273.16 48.414ZM302.827 22.148C304.759 22.148 306.476 22.5773 307.979 23.436C309.481 24.264 310.647 25.506 311.475 27.162C312.333 28.7873 312.763 30.75 312.763 33.05V48H306.323V33.924C306.323 31.9 305.817 30.3513 304.805 29.278C303.793 28.174 302.413 27.622 300.665 27.622C298.886 27.622 297.475 28.174 296.433 29.278C295.421 30.3513 294.915 31.9 294.915 33.924V48H288.475V13.96H294.915V25.69C295.743 24.586 296.847 23.7273 298.227 23.114C299.607 22.47 301.14 22.148 302.827 22.148ZM353.906 22.516V48H347.42V44.78C346.592 45.884 345.503 46.758 344.154 47.402C342.835 48.0153 341.394 48.322 339.83 48.322C337.836 48.322 336.073 47.908 334.54 47.08C333.006 46.2213 331.795 44.9793 330.906 43.354C330.047 41.698 329.618 39.7353 329.618 37.466V22.516H336.058V36.546C336.058 38.57 336.564 40.134 337.576 41.238C338.588 42.3113 339.968 42.848 341.716 42.848C343.494 42.848 344.89 42.3113 345.902 41.238C346.914 40.134 347.42 38.57 347.42 36.546V22.516H353.906ZM370.012 48.414C367.927 48.414 366.056 48.046 364.4 47.31C362.744 46.5433 361.425 45.516 360.444 44.228C359.493 42.94 358.972 41.514 358.88 39.95H365.366C365.489 40.9313 365.964 41.744 366.792 42.388C367.651 43.032 368.709 43.354 369.966 43.354C371.193 43.354 372.143 43.1087 372.818 42.618C373.523 42.1273 373.876 41.4987 373.876 40.732C373.876 39.904 373.447 39.2907 372.588 38.892C371.76 38.4627 370.426 38.0027 368.586 37.512C366.685 37.052 365.121 36.5767 363.894 36.086C362.698 35.5953 361.655 34.844 360.766 33.832C359.907 32.82 359.478 31.4553 359.478 29.738C359.478 28.3273 359.877 27.0393 360.674 25.874C361.502 24.7087 362.667 23.7887 364.17 23.114C365.703 22.4393 367.497 22.102 369.552 22.102C372.588 22.102 375.011 22.8687 376.82 24.402C378.629 25.9047 379.626 27.944 379.81 30.52H373.646C373.554 29.508 373.125 28.7107 372.358 28.128C371.622 27.5147 370.625 27.208 369.368 27.208C368.203 27.208 367.298 27.4227 366.654 27.852C366.041 28.2813 365.734 28.8793 365.734 29.646C365.734 30.5047 366.163 31.164 367.022 31.624C367.881 32.0533 369.215 32.498 371.024 32.958C372.864 33.418 374.382 33.8933 375.578 34.384C376.774 34.8747 377.801 35.6413 378.66 36.684C379.549 37.696 380.009 39.0453 380.04 40.732C380.04 42.204 379.626 43.5227 378.798 44.688C378.001 45.8533 376.835 46.7733 375.302 47.448C373.799 48.092 372.036 48.414 370.012 48.414ZM388.592 19.48C387.458 19.48 386.507 19.1273 385.74 18.422C385.004 17.686 384.636 16.7813 384.636 15.708C384.636 14.6347 385.004 13.7453 385.74 13.04C386.507 12.304 387.458 11.936 388.592 11.936C389.727 11.936 390.662 12.304 391.398 13.04C392.165 13.7453 392.548 14.6347 392.548 15.708C392.548 16.7813 392.165 17.686 391.398 18.422C390.662 19.1273 389.727 19.48 388.592 19.48ZM391.766 22.516V48H385.326V22.516H391.766ZM412.251 22.148C415.287 22.148 417.74 23.114 419.611 25.046C421.482 26.9473 422.417 29.6153 422.417 33.05V48H415.977V33.924C415.977 31.9 415.471 30.3513 414.459 29.278C413.447 28.174 412.067 27.622 410.319 27.622C408.54 27.622 407.13 28.174 406.087 29.278C405.075 30.3513 404.569 31.9 404.569 33.924V48H398.129V22.516H404.569V25.69C405.428 24.586 406.516 23.7273 407.835 23.114C409.184 22.47 410.656 22.148 412.251 22.148ZM438.523 22.102C440.425 22.102 442.096 22.4853 443.537 23.252C444.979 23.988 446.113 24.954 446.941 26.15V22.516H453.427V48.184C453.427 50.5453 452.952 52.646 452.001 54.486C451.051 56.3567 449.625 57.8287 447.723 58.902C445.822 60.006 443.522 60.558 440.823 60.558C437.205 60.558 434.23 59.7147 431.899 58.028C429.599 56.3413 428.296 54.0413 427.989 51.128H434.383C434.721 52.2933 435.441 53.2133 436.545 53.888C437.68 54.5933 439.045 54.946 440.639 54.946C442.51 54.946 444.028 54.3787 445.193 53.244C446.359 52.14 446.941 50.4533 446.941 48.184V44.228C446.113 45.424 444.963 46.4207 443.491 47.218C442.05 48.0153 440.394 48.414 438.523 48.414C436.377 48.414 434.414 47.862 432.635 46.758C430.857 45.654 429.446 44.1053 428.403 42.112C427.391 40.088 426.885 37.7727 426.885 35.166C426.885 32.59 427.391 30.3053 428.403 28.312C429.446 26.3187 430.841 24.7853 432.589 23.712C434.368 22.6387 436.346 22.102 438.523 22.102ZM446.941 35.258C446.941 33.694 446.635 32.36 446.021 31.256C445.408 30.1213 444.58 29.2627 443.537 28.68C442.495 28.0667 441.375 27.76 440.179 27.76C438.983 27.76 437.879 28.0513 436.867 28.634C435.855 29.2167 435.027 30.0753 434.383 31.21C433.77 32.314 433.463 33.6327 433.463 35.166C433.463 36.6993 433.77 38.0487 434.383 39.214C435.027 40.3487 435.855 41.2227 436.867 41.836C437.91 42.4493 439.014 42.756 440.179 42.756C441.375 42.756 442.495 42.4647 443.537 41.882C444.58 41.2687 445.408 40.41 446.021 39.306C446.635 38.1713 446.941 36.822 446.941 35.258ZM469.022 35.166C469.022 32.59 469.528 30.3053 470.54 28.312C471.583 26.3187 472.978 24.7853 474.726 23.712C476.505 22.6387 478.483 22.102 480.66 22.102C482.561 22.102 484.217 22.4853 485.628 23.252C487.069 24.0187 488.219 24.9847 489.078 26.15V22.516H495.564V48H489.078V44.274C488.25 45.47 487.1 46.4667 485.628 47.264C484.187 48.0307 482.515 48.414 480.614 48.414C478.467 48.414 476.505 47.862 474.726 46.758C472.978 45.654 471.583 44.1053 470.54 42.112C469.528 40.088 469.022 37.7727 469.022 35.166ZM489.078 35.258C489.078 33.694 488.771 32.36 488.158 31.256C487.545 30.1213 486.717 29.2627 485.674 28.68C484.631 28.0667 483.512 27.76 482.316 27.76C481.12 27.76 480.016 28.0513 479.004 28.634C477.992 29.2167 477.164 30.0753 476.52 31.21C475.907 32.314 475.6 33.6327 475.6 35.166C475.6 36.6993 475.907 38.0487 476.52 39.214C477.164 40.3487 477.992 41.2227 479.004 41.836C480.047 42.4493 481.151 42.756 482.316 42.756C483.512 42.756 484.631 42.4647 485.674 41.882C486.717 41.2687 487.545 40.41 488.158 39.306C488.771 38.1713 489.078 36.822 489.078 35.258ZM515.976 22.148C519.012 22.148 521.465 23.114 523.336 25.046C525.206 26.9473 526.142 29.6153 526.142 33.05V48H519.702V33.924C519.702 31.9 519.196 30.3513 518.184 29.278C517.172 28.174 515.792 27.622 514.044 27.622C512.265 27.622 510.854 28.174 509.812 29.278C508.8 30.3513 508.294 31.9 508.294 33.924V48H501.854V22.516H508.294V25.69C509.152 24.586 510.241 23.7273 511.56 23.114C512.909 22.47 514.381 22.148 515.976 22.148ZM556.646 22.516L540.868 60.052H534.014L539.534 47.356L529.322 22.516H536.544L543.122 40.318L549.792 22.516H556.646ZM32.704 79.892L21.848 100.822V112H15.408V100.822L4.506 79.892H11.774L18.674 94.566L25.528 79.892H32.704ZM47.7341 112.414C45.2808 112.414 43.0728 111.877 41.1101 110.804C39.1475 109.7 37.5988 108.151 36.4641 106.158C35.3601 104.165 34.8081 101.865 34.8081 99.258C34.8081 96.6513 35.3755 94.3513 36.5101 92.358C37.6755 90.3647 39.2548 88.8313 41.2481 87.758C43.2415 86.654 45.4648 86.102 47.9181 86.102C50.3715 86.102 52.5948 86.654 54.5881 87.758C56.5815 88.8313 58.1455 90.3647 59.2801 92.358C60.4455 94.3513 61.0281 96.6513 61.0281 99.258C61.0281 101.865 60.4301 104.165 59.2341 106.158C58.0688 108.151 56.4741 109.7 54.4501 110.804C52.4568 111.877 50.2181 112.414 47.7341 112.414ZM47.7341 106.802C48.8995 106.802 49.9881 106.526 51.0001 105.974C52.0428 105.391 52.8708 104.533 53.4841 103.398C54.0975 102.263 54.4041 100.883 54.4041 99.258C54.4041 96.8353 53.7601 94.98 52.4721 93.692C51.2148 92.3733 49.6661 91.714 47.8261 91.714C45.9861 91.714 44.4375 92.3733 43.1801 93.692C41.9535 94.98 41.3401 96.8353 41.3401 99.258C41.3401 101.681 41.9381 103.551 43.1341 104.87C44.3608 106.158 45.8941 106.802 47.7341 106.802ZM89.8101 86.516V112H83.3241V108.78C82.4961 109.884 81.4075 110.758 80.0581 111.402C78.7395 112.015 77.2981 112.322 75.7341 112.322C73.7408 112.322 71.9775 111.908 70.4441 111.08C68.9108 110.221 67.6995 108.979 66.8101 107.354C65.9515 105.698 65.5221 103.735 65.5221 101.466V86.516H71.9621V100.546C71.9621 102.57 72.4681 104.134 73.4801 105.238C74.4921 106.311 75.8721 106.848 77.6201 106.848C79.3988 106.848 80.7941 106.311 81.8061 105.238C82.8181 104.134 83.3241 102.57 83.3241 100.546V86.516H89.8101ZM118.014 79.892V85.09H109.458V112H103.018V85.09H94.4622V79.892H118.014ZM146.771 86.516V112H140.285V108.78C139.457 109.884 138.368 110.758 137.019 111.402C135.7 112.015 134.259 112.322 132.695 112.322C130.702 112.322 128.938 111.908 127.405 111.08C125.872 110.221 124.66 108.979 123.771 107.354C122.912 105.698 122.483 103.735 122.483 101.466V86.516H128.923V100.546C128.923 102.57 129.429 104.134 130.441 105.238C131.453 106.311 132.833 106.848 134.581 106.848C136.36 106.848 137.755 106.311 138.767 105.238C139.779 104.134 140.285 102.57 140.285 100.546V86.516H146.771ZM159.565 90.242C160.393 89.0153 161.528 88.0187 162.969 87.252C164.441 86.4853 166.113 86.102 167.983 86.102C170.161 86.102 172.123 86.6387 173.871 87.712C175.65 88.7853 177.045 90.3187 178.057 92.312C179.1 94.2747 179.621 96.5593 179.621 99.166C179.621 101.773 179.1 104.088 178.057 106.112C177.045 108.105 175.65 109.654 173.871 110.758C172.123 111.862 170.161 112.414 167.983 112.414C166.082 112.414 164.411 112.046 162.969 111.31C161.559 110.543 160.424 109.562 159.565 108.366V112H153.125V77.96H159.565V90.242ZM173.043 99.166C173.043 97.6327 172.721 96.314 172.077 95.21C171.464 94.0753 170.636 93.2167 169.593 92.634C168.581 92.0513 167.477 91.76 166.281 91.76C165.116 91.76 164.012 92.0667 162.969 92.68C161.957 93.2627 161.129 94.1213 160.485 95.256C159.872 96.3907 159.565 97.7247 159.565 99.258C159.565 100.791 159.872 102.125 160.485 103.26C161.129 104.395 161.957 105.269 162.969 105.882C164.012 106.465 165.116 106.756 166.281 106.756C167.477 106.756 168.581 106.449 169.593 105.836C170.636 105.223 171.464 104.349 172.077 103.214C172.721 102.079 173.043 100.73 173.043 99.166ZM207.991 98.706C207.991 99.626 207.93 100.454 207.807 101.19H189.177C189.33 103.03 189.974 104.471 191.109 105.514C192.244 106.557 193.639 107.078 195.295 107.078C197.687 107.078 199.389 106.051 200.401 103.996H207.347C206.611 106.449 205.2 108.473 203.115 110.068C201.03 111.632 198.469 112.414 195.433 112.414C192.98 112.414 190.772 111.877 188.809 110.804C186.877 109.7 185.359 108.151 184.255 106.158C183.182 104.165 182.645 101.865 182.645 99.258C182.645 96.6207 183.182 94.3053 184.255 92.312C185.328 90.3187 186.831 88.7853 188.763 87.712C190.695 86.6387 192.918 86.102 195.433 86.102C197.856 86.102 200.018 86.6233 201.919 87.666C203.851 88.7087 205.338 90.196 206.381 92.128C207.454 94.0293 207.991 96.222 207.991 98.706ZM201.321 96.866C201.29 95.21 200.692 93.8913 199.527 92.91C198.362 91.898 196.936 91.392 195.249 91.392C193.654 91.392 192.305 91.8827 191.201 92.864C190.128 93.8147 189.468 95.1487 189.223 96.866H201.321ZM234.279 106.066L240.719 86.516H247.573L238.143 112H230.323L220.939 86.516H227.839L234.279 106.066ZM254.456 83.48C253.321 83.48 252.37 83.1273 251.604 82.422C250.868 81.686 250.5 80.7813 250.5 79.708C250.5 78.6347 250.868 77.7453 251.604 77.04C252.37 76.304 253.321 75.936 254.456 75.936C255.59 75.936 256.526 76.304 257.262 77.04C258.028 77.7453 258.412 78.6347 258.412 79.708C258.412 80.7813 258.028 81.686 257.262 82.422C256.526 83.1273 255.59 83.48 254.456 83.48ZM257.63 86.516V112H251.19V86.516H257.63ZM262.336 99.166C262.336 96.59 262.842 94.3053 263.854 92.312C264.897 90.3187 266.308 88.7853 268.086 87.712C269.865 86.6387 271.843 86.102 274.02 86.102C275.676 86.102 277.256 86.47 278.758 87.206C280.261 87.9113 281.457 88.862 282.346 90.058V77.96H288.878V112H282.346V108.228C281.549 109.485 280.43 110.497 278.988 111.264C277.547 112.031 275.876 112.414 273.974 112.414C271.828 112.414 269.865 111.862 268.086 110.758C266.308 109.654 264.897 108.105 263.854 106.112C262.842 104.088 262.336 101.773 262.336 99.166ZM282.392 99.258C282.392 97.694 282.086 96.36 281.472 95.256C280.859 94.1213 280.031 93.2627 278.988 92.68C277.946 92.0667 276.826 91.76 275.63 91.76C274.434 91.76 273.33 92.0513 272.318 92.634C271.306 93.2167 270.478 94.0753 269.834 95.21C269.221 96.314 268.914 97.6327 268.914 99.166C268.914 100.699 269.221 102.049 269.834 103.214C270.478 104.349 271.306 105.223 272.318 105.836C273.361 106.449 274.465 106.756 275.63 106.756C276.826 106.756 277.946 106.465 278.988 105.882C280.031 105.269 280.859 104.41 281.472 103.306C282.086 102.171 282.392 100.822 282.392 99.258ZM318.858 98.706C318.858 99.626 318.797 100.454 318.674 101.19H300.044C300.197 103.03 300.841 104.471 301.976 105.514C303.111 106.557 304.506 107.078 306.162 107.078C308.554 107.078 310.256 106.051 311.268 103.996H318.214C317.478 106.449 316.067 108.473 313.982 110.068C311.897 111.632 309.336 112.414 306.3 112.414C303.847 112.414 301.639 111.877 299.676 110.804C297.744 109.7 296.226 108.151 295.122 106.158C294.049 104.165 293.512 101.865 293.512 99.258C293.512 96.6207 294.049 94.3053 295.122 92.312C296.195 90.3187 297.698 88.7853 299.63 87.712C301.562 86.6387 303.785 86.102 306.3 86.102C308.723 86.102 310.885 86.6233 312.786 87.666C314.718 88.7087 316.205 90.196 317.248 92.128C318.321 94.0293 318.858 96.222 318.858 98.706ZM312.188 96.866C312.157 95.21 311.559 93.8913 310.394 92.91C309.229 91.898 307.803 91.392 306.116 91.392C304.521 91.392 303.172 91.8827 302.068 92.864C300.995 93.8147 300.335 95.1487 300.09 96.866H312.188ZM334.875 112.414C332.421 112.414 330.213 111.877 328.251 110.804C326.288 109.7 324.739 108.151 323.605 106.158C322.501 104.165 321.949 101.865 321.949 99.258C321.949 96.6513 322.516 94.3513 323.651 92.358C324.816 90.3647 326.395 88.8313 328.389 87.758C330.382 86.654 332.605 86.102 335.059 86.102C337.512 86.102 339.735 86.654 341.729 87.758C343.722 88.8313 345.286 90.3647 346.421 92.358C347.586 94.3513 348.169 96.6513 348.169 99.258C348.169 101.865 347.571 104.165 346.375 106.158C345.209 108.151 343.615 109.7 341.591 110.804C339.597 111.877 337.359 112.414 334.875 112.414ZM334.875 106.802C336.04 106.802 337.129 106.526 338.141 105.974C339.183 105.391 340.011 104.533 340.625 103.398C341.238 102.263 341.545 100.883 341.545 99.258C341.545 96.8353 340.901 94.98 339.613 93.692C338.355 92.3733 336.807 91.714 334.967 91.714C333.127 91.714 331.578 92.3733 330.321 93.692C329.094 94.98 328.481 96.8353 328.481 99.258C328.481 101.681 329.079 103.551 330.275 104.87C331.501 106.158 333.035 106.802 334.875 106.802ZM397.46 91.806H392.998V112H386.466V91.806H383.568V86.516H386.466V85.228C386.466 82.1 387.355 79.8 389.134 78.328C390.912 76.856 393.596 76.166 397.184 76.258V81.686C395.62 81.6553 394.531 81.916 393.918 82.468C393.304 83.02 392.998 84.0167 392.998 85.458V86.516H397.46V91.806ZM412.949 112.414C410.496 112.414 408.288 111.877 406.325 110.804C404.362 109.7 402.814 108.151 401.679 106.158C400.575 104.165 400.023 101.865 400.023 99.258C400.023 96.6513 400.59 94.3513 401.725 92.358C402.89 90.3647 404.47 88.8313 406.463 87.758C408.456 86.654 410.68 86.102 413.133 86.102C415.586 86.102 417.81 86.654 419.803 87.758C421.796 88.8313 423.36 90.3647 424.495 92.358C425.66 94.3513 426.243 96.6513 426.243 99.258C426.243 101.865 425.645 104.165 424.449 106.158C423.284 108.151 421.689 109.7 419.665 110.804C417.672 111.877 415.433 112.414 412.949 112.414ZM412.949 106.802C414.114 106.802 415.203 106.526 416.215 105.974C417.258 105.391 418.086 104.533 418.699 103.398C419.312 102.263 419.619 100.883 419.619 99.258C419.619 96.8353 418.975 94.98 417.687 93.692C416.43 92.3733 414.881 91.714 413.041 91.714C411.201 91.714 409.652 92.3733 408.395 93.692C407.168 94.98 406.555 96.8353 406.555 99.258C406.555 101.681 407.153 103.551 408.349 104.87C409.576 106.158 411.109 106.802 412.949 106.802ZM437.407 90.472C438.235 89.1227 439.308 88.0647 440.627 87.298C441.976 86.5313 443.51 86.148 445.227 86.148V92.91H443.525C441.501 92.91 439.968 93.3853 438.925 94.336C437.913 95.2867 437.407 96.9427 437.407 99.304V112H430.967V86.516H437.407V90.472ZM472.21 91.806H467.748V112H461.216V91.806H458.318V86.516H461.216V85.228C461.216 82.1 462.105 79.8 463.884 78.328C465.662 76.856 468.346 76.166 471.934 76.258V81.686C470.37 81.6553 469.281 81.916 468.668 82.468C468.054 83.02 467.748 84.0167 467.748 85.458V86.516H472.21V91.806ZM482.823 90.472C483.651 89.1227 484.724 88.0647 486.043 87.298C487.392 86.5313 488.926 86.148 490.643 86.148V92.91H488.941C486.917 92.91 485.384 93.3853 484.341 94.336C483.329 95.2867 482.823 96.9427 482.823 99.304V112H476.383V86.516H482.823V90.472ZM518.671 98.706C518.671 99.626 518.609 100.454 518.487 101.19H499.857C500.01 103.03 500.654 104.471 501.789 105.514C502.923 106.557 504.319 107.078 505.975 107.078C508.367 107.078 510.069 106.051 511.081 103.996H518.027C517.291 106.449 515.88 108.473 513.795 110.068C511.709 111.632 509.149 112.414 506.113 112.414C503.659 112.414 501.451 111.877 499.489 110.804C497.557 109.7 496.039 108.151 494.935 106.158C493.861 104.165 493.325 101.865 493.325 99.258C493.325 96.6207 493.861 94.3053 494.935 92.312C496.008 90.3187 497.511 88.7853 499.443 87.712C501.375 86.6387 503.598 86.102 506.113 86.102C508.535 86.102 510.697 86.6233 512.599 87.666C514.531 88.7087 516.018 90.196 517.061 92.128C518.134 94.0293 518.671 96.222 518.671 98.706ZM512.001 96.866C511.97 95.21 511.372 93.8913 510.207 92.91C509.041 91.898 507.615 91.392 505.929 91.392C504.334 91.392 502.985 91.8827 501.881 92.864C500.807 93.8147 500.148 95.1487 499.903 96.866H512.001ZM547.061 98.706C547.061 99.626 547 100.454 546.877 101.19H528.247C528.401 103.03 529.045 104.471 530.179 105.514C531.314 106.557 532.709 107.078 534.365 107.078C536.757 107.078 538.459 106.051 539.471 103.996H546.417C545.681 106.449 544.271 108.473 542.185 110.068C540.1 111.632 537.539 112.414 534.503 112.414C532.05 112.414 529.842 111.877 527.879 110.804C525.947 109.7 524.429 108.151 523.325 106.158C522.252 104.165 521.715 101.865 521.715 99.258C521.715 96.6207 522.252 94.3053 523.325 92.312C524.399 90.3187 525.901 88.7853 527.833 87.712C529.765 86.6387 531.989 86.102 534.503 86.102C536.926 86.102 539.088 86.6233 540.989 87.666C542.921 88.7087 544.409 90.196 545.451 92.128C546.525 94.0293 547.061 96.222 547.061 98.706ZM540.391 96.866C540.361 95.21 539.763 93.8913 538.597 92.91C537.432 91.898 536.006 91.392 534.319 91.392C532.725 91.392 531.375 91.8827 530.271 92.864C529.198 93.8147 528.539 95.1487 528.293 96.866H540.391ZM560.088 79.34L559.352 101.558H553.924L553.142 79.34H560.088ZM556.776 112.322C555.611 112.322 554.645 111.969 553.878 111.264C553.142 110.528 552.774 109.623 552.774 108.55C552.774 107.477 553.142 106.587 553.878 105.882C554.645 105.146 555.611 104.778 556.776 104.778C557.911 104.778 558.846 105.146 559.582 105.882C560.318 106.587 560.686 107.477 560.686 108.55C560.686 109.623 560.318 110.528 559.582 111.264C558.846 111.969 557.911 112.322 556.776 112.322Z" fill="#1F242D"/>
</g>
<defs>
<filter id="filter0_d_14_399" x="0.506001" y="11.936" width="564.18" height="108.478" filterUnits="userSpaceOnUse" color-interpolation-filters="sRGB">
<feFlood flood-opacity="0" result="BackgroundImageFix"/>
<feColorMatrix in="SourceAlpha" type="matrix" values="0 0 0 0 0 0 0 0 0 0 0 0 0 0 0 0 0 0 127 0" result="hardAlpha"/>
<feOffset dy="4"/>
<feGaussianBlur stdDeviation="2"/>
<feComposite in2="hardAlpha" operator="out"/>
<feColorMatrix type="matrix" values="0 0 0 0 0 0 0 0 0 0 0 0 0 0 0 0 0 0 0.04 0"/>
<feBlend mode="normal" in2="BackgroundImageFix" result="effect1_dropShadow_14_399"/>
<feBlend mode="normal" in="SourceGraphic" in2="effect1_dropShadow_14_399" result="shape"/>
</filter>
</defs>
</svg>
