<svg width="633" height="134" viewBox="0 0 633 134" fill="none" xmlns="http://www.w3.org/2000/svg">
<path d="M375.603 67H596L571.397 129H351L375.603 67Z" fill="#F7D73B"/>
<g filter="url(#filter0_d_14_413)">
<path d="M13.614 42.894H24.194V48H7.174V15.892H13.614V42.894ZM51.9773 34.706C51.9773 35.626 51.916 36.454 51.7933 37.19H33.1633C33.3166 39.03 33.9606 40.4713 35.0953 41.514C36.2299 42.5567 37.6253 43.078 39.2813 43.078C41.6733 43.078 43.3753 42.0507 44.3873 39.996H51.3333C50.5973 42.4493 49.1866 44.4733 47.1013 46.068C45.0159 47.632 42.4553 48.414 39.4193 48.414C36.9659 48.414 34.7579 47.8773 32.7953 46.804C30.8633 45.7 29.3453 44.1513 28.2413 42.158C27.1679 40.1647 26.6313 37.8647 26.6313 35.258C26.6313 32.6207 27.1679 30.3053 28.2413 28.312C29.3146 26.3187 30.8173 24.7853 32.7493 23.712C34.6813 22.6387 36.9046 22.102 39.4193 22.102C41.8419 22.102 44.0039 22.6233 45.9053 23.666C47.8373 24.7087 49.3246 26.196 50.3673 28.128C51.4406 30.0293 51.9773 32.222 51.9773 34.706ZM45.3073 32.866C45.2766 31.21 44.6786 29.8913 43.5133 28.91C42.3479 27.898 40.9219 27.392 39.2353 27.392C37.6406 27.392 36.2913 27.8827 35.1873 28.864C34.1139 29.8147 33.4546 31.1487 33.2093 32.866H45.3073ZM55.0219 35.166C55.0219 32.59 55.5279 30.3053 56.5399 28.312C57.5826 26.3187 58.9779 24.7853 60.7259 23.712C62.5046 22.6387 64.4826 22.102 66.6599 22.102C68.5612 22.102 70.2172 22.4853 71.6279 23.252C73.0692 24.0187 74.2192 24.9847 75.0779 26.15V22.516H81.5639V48H75.0779V44.274C74.2499 45.47 73.0999 46.4667 71.6279 47.264C70.1866 48.0307 68.5152 48.414 66.6139 48.414C64.4672 48.414 62.5046 47.862 60.7259 46.758C58.9779 45.654 57.5826 44.1053 56.5399 42.112C55.5279 40.088 55.0219 37.7727 55.0219 35.166ZM75.0779 35.258C75.0779 33.694 74.7712 32.36 74.1579 31.256C73.5446 30.1213 72.7166 29.2627 71.6739 28.68C70.6312 28.0667 69.5119 27.76 68.3159 27.76C67.1199 27.76 66.0159 28.0513 65.0039 28.634C63.9919 29.2167 63.1639 30.0753 62.5199 31.21C61.9066 32.314 61.5999 33.6327 61.5999 35.166C61.5999 36.6993 61.9066 38.0487 62.5199 39.214C63.1639 40.3487 63.9919 41.2227 65.0039 41.836C66.0466 42.4493 67.1506 42.756 68.3159 42.756C69.5119 42.756 70.6312 42.4647 71.6739 41.882C72.7166 41.2687 73.5446 40.41 74.1579 39.306C74.7712 38.1713 75.0779 36.822 75.0779 35.258ZM94.2937 26.472C95.1217 25.1227 96.195 24.0647 97.5137 23.298C98.863 22.5313 100.396 22.148 102.114 22.148V28.91H100.412C98.3877 28.91 96.8544 29.3853 95.8117 30.336C94.7997 31.2867 94.2937 32.9427 94.2937 35.304V48H87.8537V22.516H94.2937V26.472ZM120.573 22.148C123.609 22.148 126.063 23.114 127.933 25.046C129.804 26.9473 130.739 29.6153 130.739 33.05V48H124.299V33.924C124.299 31.9 123.793 30.3513 122.781 29.278C121.769 28.174 120.389 27.622 118.641 27.622C116.863 27.622 115.452 28.174 114.409 29.278C113.397 30.3513 112.891 31.9 112.891 33.924V48H106.451V22.516H112.891V25.69C113.75 24.586 114.839 23.7273 116.157 23.114C117.507 22.47 118.979 22.148 120.573 22.148ZM146.168 35.258C146.168 32.6207 146.705 30.3207 147.778 28.358C148.852 26.3647 150.339 24.8313 152.24 23.758C154.142 22.654 156.319 22.102 158.772 22.102C161.931 22.102 164.538 22.8993 166.592 24.494C168.678 26.058 170.073 28.266 170.778 31.118H163.832C163.464 30.014 162.836 29.1553 161.946 28.542C161.088 27.898 160.014 27.576 158.726 27.576C156.886 27.576 155.43 28.2507 154.356 29.6C153.283 30.9187 152.746 32.8047 152.746 35.258C152.746 37.6807 153.283 39.5667 154.356 40.916C155.43 42.2347 156.886 42.894 158.726 42.894C161.333 42.894 163.035 41.7287 163.832 39.398H170.778C170.073 42.158 168.678 44.3507 166.592 45.976C164.507 47.6013 161.9 48.414 158.772 48.414C156.319 48.414 154.142 47.8773 152.24 46.804C150.339 45.7 148.852 44.1667 147.778 42.204C146.705 40.2107 146.168 37.8953 146.168 35.258ZM189.848 22.148C191.78 22.148 193.498 22.5773 195 23.436C196.503 24.264 197.668 25.506 198.496 27.162C199.355 28.7873 199.784 30.75 199.784 33.05V48H193.344V33.924C193.344 31.9 192.838 30.3513 191.826 29.278C190.814 28.174 189.434 27.622 187.686 27.622C185.908 27.622 184.497 28.174 183.454 29.278C182.442 30.3513 181.936 31.9 181.936 33.924V48H175.496V13.96H181.936V25.69C182.764 24.586 183.868 23.7273 185.248 23.114C186.628 22.47 188.162 22.148 189.848 22.148ZM209.174 19.48C208.04 19.48 207.089 19.1273 206.322 18.422C205.586 17.686 205.218 16.7813 205.218 15.708C205.218 14.6347 205.586 13.7453 206.322 13.04C207.089 12.304 208.04 11.936 209.174 11.936C210.309 11.936 211.244 12.304 211.98 13.04C212.747 13.7453 213.13 14.6347 213.13 15.708C213.13 16.7813 212.747 17.686 211.98 18.422C211.244 19.1273 210.309 19.48 209.174 19.48ZM212.348 22.516V48H205.908V22.516H212.348ZM232.833 22.148C235.869 22.148 238.322 23.114 240.193 25.046C242.064 26.9473 242.999 29.6153 242.999 33.05V48H236.559V33.924C236.559 31.9 236.053 30.3513 235.041 29.278C234.029 28.174 232.649 27.622 230.901 27.622C229.122 27.622 227.712 28.174 226.669 29.278C225.657 30.3513 225.151 31.9 225.151 33.924V48H218.711V22.516H225.151V25.69C226.01 24.586 227.098 23.7273 228.417 23.114C229.766 22.47 231.238 22.148 232.833 22.148ZM272.813 34.706C272.813 35.626 272.752 36.454 272.629 37.19H253.999C254.153 39.03 254.797 40.4713 255.931 41.514C257.066 42.5567 258.461 43.078 260.117 43.078C262.509 43.078 264.211 42.0507 265.223 39.996H272.169C271.433 42.4493 270.023 44.4733 267.937 46.068C265.852 47.632 263.291 48.414 260.255 48.414C257.802 48.414 255.594 47.8773 253.631 46.804C251.699 45.7 250.181 44.1513 249.077 42.158C248.004 40.1647 247.467 37.8647 247.467 35.258C247.467 32.6207 248.004 30.3053 249.077 28.312C250.151 26.3187 251.653 24.7853 253.585 23.712C255.517 22.6387 257.741 22.102 260.255 22.102C262.678 22.102 264.84 22.6233 266.741 23.666C268.673 24.7087 270.161 26.196 271.203 28.128C272.277 30.0293 272.813 32.222 272.813 34.706ZM266.143 32.866C266.113 31.21 265.515 29.8913 264.349 28.91C263.184 27.898 261.758 27.392 260.071 27.392C258.477 27.392 257.127 27.8827 256.023 28.864C254.95 29.8147 254.291 31.1487 254.045 32.866H266.143ZM301.204 34.706C301.204 35.626 301.143 36.454 301.02 37.19H282.39C282.543 39.03 283.187 40.4713 284.322 41.514C285.457 42.5567 286.852 43.078 288.508 43.078C290.9 43.078 292.602 42.0507 293.614 39.996H300.56C299.824 42.4493 298.413 44.4733 296.328 46.068C294.243 47.632 291.682 48.414 288.646 48.414C286.193 48.414 283.985 47.8773 282.022 46.804C280.09 45.7 278.572 44.1513 277.468 42.158C276.395 40.1647 275.858 37.8647 275.858 35.258C275.858 32.6207 276.395 30.3053 277.468 28.312C278.541 26.3187 280.044 24.7853 281.976 23.712C283.908 22.6387 286.131 22.102 288.646 22.102C291.069 22.102 293.231 22.6233 295.132 23.666C297.064 24.7087 298.551 26.196 299.594 28.128C300.667 30.0293 301.204 32.222 301.204 34.706ZM294.534 32.866C294.503 31.21 293.905 29.8913 292.74 28.91C291.575 27.898 290.149 27.392 288.462 27.392C286.867 27.392 285.518 27.8827 284.414 28.864C283.341 29.8147 282.681 31.1487 282.436 32.866H294.534ZM315.656 48.414C313.571 48.414 311.7 48.046 310.044 47.31C308.388 46.5433 307.07 45.516 306.088 44.228C305.138 42.94 304.616 41.514 304.524 39.95H311.01C311.133 40.9313 311.608 41.744 312.436 42.388C313.295 43.032 314.353 43.354 315.61 43.354C316.837 43.354 317.788 43.1087 318.462 42.618C319.168 42.1273 319.52 41.4987 319.52 40.732C319.52 39.904 319.091 39.2907 318.232 38.892C317.404 38.4627 316.07 38.0027 314.23 37.512C312.329 37.052 310.765 36.5767 309.538 36.086C308.342 35.5953 307.3 34.844 306.41 33.832C305.552 32.82 305.122 31.4553 305.122 29.738C305.122 28.3273 305.521 27.0393 306.318 25.874C307.146 24.7087 308.312 23.7887 309.814 23.114C311.348 22.4393 313.142 22.102 315.196 22.102C318.232 22.102 320.655 22.8687 322.464 24.402C324.274 25.9047 325.27 27.944 325.454 30.52H319.29C319.198 29.508 318.769 28.7107 318.002 28.128C317.266 27.5147 316.27 27.208 315.012 27.208C313.847 27.208 312.942 27.4227 312.298 27.852C311.685 28.2813 311.378 28.8793 311.378 29.646C311.378 30.5047 311.808 31.164 312.666 31.624C313.525 32.0533 314.859 32.498 316.668 32.958C318.508 33.418 320.026 33.8933 321.222 34.384C322.418 34.8747 323.446 35.6413 324.304 36.684C325.194 37.696 325.654 39.0453 325.684 40.732C325.684 42.204 325.27 43.5227 324.442 44.688C323.645 45.8533 322.48 46.7733 320.946 47.448C319.444 48.092 317.68 48.414 315.656 48.414ZM354.661 34.706C354.661 35.626 354.6 36.454 354.477 37.19H335.847C336 39.03 336.644 40.4713 337.779 41.514C338.914 42.5567 340.309 43.078 341.965 43.078C344.357 43.078 346.059 42.0507 347.071 39.996H354.017C353.281 42.4493 351.87 44.4733 349.785 46.068C347.7 47.632 345.139 48.414 342.103 48.414C339.65 48.414 337.442 47.8773 335.479 46.804C333.547 45.7 332.029 44.1513 330.925 42.158C329.852 40.1647 329.315 37.8647 329.315 35.258C329.315 32.6207 329.852 30.3053 330.925 28.312C331.998 26.3187 333.501 24.7853 335.433 23.712C337.365 22.6387 339.588 22.102 342.103 22.102C344.526 22.102 346.688 22.6233 348.589 23.666C350.521 24.7087 352.008 26.196 353.051 28.128C354.124 30.0293 354.661 32.222 354.661 34.706ZM347.991 32.866C347.96 31.21 347.362 29.8913 346.197 28.91C345.032 27.898 343.606 27.392 341.919 27.392C340.324 27.392 338.975 27.8827 337.871 28.864C336.798 29.8147 336.138 31.1487 335.893 32.866H347.991ZM394.38 22.516V48H387.894V44.78C387.066 45.884 385.978 46.758 384.628 47.402C383.31 48.0153 381.868 48.322 380.304 48.322C378.311 48.322 376.548 47.908 375.014 47.08C373.481 46.2213 372.27 44.9793 371.38 43.354C370.522 41.698 370.092 39.7353 370.092 37.466V22.516H376.532V36.546C376.532 38.57 377.038 40.134 378.05 41.238C379.062 42.3113 380.442 42.848 382.19 42.848C383.969 42.848 385.364 42.3113 386.376 41.238C387.388 40.134 387.894 38.57 387.894 36.546V22.516H394.38ZM410.487 48.414C408.401 48.414 406.531 48.046 404.875 47.31C403.219 46.5433 401.9 45.516 400.919 44.228C399.968 42.94 399.447 41.514 399.355 39.95H405.841C405.963 40.9313 406.439 41.744 407.267 42.388C408.125 43.032 409.183 43.354 410.441 43.354C411.667 43.354 412.618 43.1087 413.293 42.618C413.998 42.1273 414.351 41.4987 414.351 40.732C414.351 39.904 413.921 39.2907 413.063 38.892C412.235 38.4627 410.901 38.0027 409.061 37.512C407.159 37.052 405.595 36.5767 404.369 36.086C403.173 35.5953 402.13 34.844 401.241 33.832C400.382 32.82 399.953 31.4553 399.953 29.738C399.953 28.3273 400.351 27.0393 401.149 25.874C401.977 24.7087 403.142 23.7887 404.645 23.114C406.178 22.4393 407.972 22.102 410.027 22.102C413.063 22.102 415.485 22.8687 417.295 24.402C419.104 25.9047 420.101 27.944 420.285 30.52H414.121C414.029 29.508 413.599 28.7107 412.833 28.128C412.097 27.5147 411.1 27.208 409.843 27.208C408.677 27.208 407.773 27.4227 407.129 27.852C406.515 28.2813 406.209 28.8793 406.209 29.646C406.209 30.5047 406.638 31.164 407.497 31.624C408.355 32.0533 409.689 32.498 411.499 32.958C413.339 33.418 414.857 33.8933 416.053 34.384C417.249 34.8747 418.276 35.6413 419.135 36.684C420.024 37.696 420.484 39.0453 420.515 40.732C420.515 42.204 420.101 43.5227 419.273 44.688C418.475 45.8533 417.31 46.7733 415.777 47.448C414.274 48.092 412.511 48.414 410.487 48.414ZM429.067 19.48C427.932 19.48 426.982 19.1273 426.215 18.422C425.479 17.686 425.111 16.7813 425.111 15.708C425.111 14.6347 425.479 13.7453 426.215 13.04C426.982 12.304 427.932 11.936 429.067 11.936C430.202 11.936 431.137 12.304 431.873 13.04C432.64 13.7453 433.023 14.6347 433.023 15.708C433.023 16.7813 432.64 17.686 431.873 18.422C431.137 19.1273 430.202 19.48 429.067 19.48ZM432.241 22.516V48H425.801V22.516H432.241ZM452.726 22.148C455.762 22.148 458.215 23.114 460.086 25.046C461.956 26.9473 462.892 29.6153 462.892 33.05V48H456.452V33.924C456.452 31.9 455.946 30.3513 454.934 29.278C453.922 28.174 452.542 27.622 450.794 27.622C449.015 27.622 447.604 28.174 446.562 29.278C445.55 30.3513 445.044 31.9 445.044 33.924V48H438.604V22.516H445.044V25.69C445.902 24.586 446.991 23.7273 448.31 23.114C449.659 22.47 451.131 22.148 452.726 22.148ZM478.998 22.102C480.899 22.102 482.57 22.4853 484.012 23.252C485.453 23.988 486.588 24.954 487.416 26.15V22.516H493.902V48.184C493.902 50.5453 493.426 52.646 492.476 54.486C491.525 56.3567 490.099 57.8287 488.198 58.902C486.296 60.006 483.996 60.558 481.298 60.558C477.679 60.558 474.704 59.7147 472.374 58.028C470.074 56.3413 468.77 54.0413 468.464 51.128H474.858C475.195 52.2933 475.916 53.2133 477.02 53.888C478.154 54.5933 479.519 54.946 481.114 54.946C482.984 54.946 484.502 54.3787 485.668 53.244C486.833 52.14 487.416 50.4533 487.416 48.184V44.228C486.588 45.424 485.438 46.4207 483.966 47.218C482.524 48.0153 480.868 48.414 478.998 48.414C476.851 48.414 474.888 47.862 473.11 46.758C471.331 45.654 469.92 44.1053 468.878 42.112C467.866 40.088 467.36 37.7727 467.36 35.166C467.36 32.59 467.866 30.3053 468.878 28.312C469.92 26.3187 471.316 24.7853 473.064 23.712C474.842 22.6387 476.82 22.102 478.998 22.102ZM487.416 35.258C487.416 33.694 487.109 32.36 486.496 31.256C485.882 30.1213 485.054 29.2627 484.012 28.68C482.969 28.0667 481.85 27.76 480.654 27.76C479.458 27.76 478.354 28.0513 477.342 28.634C476.33 29.2167 475.502 30.0753 474.858 31.21C474.244 32.314 473.938 33.6327 473.938 35.166C473.938 36.6993 474.244 38.0487 474.858 39.214C475.502 40.3487 476.33 41.2227 477.342 41.836C478.384 42.4493 479.488 42.756 480.654 42.756C481.85 42.756 482.969 42.4647 484.012 41.882C485.054 41.2687 485.882 40.41 486.496 39.306C487.109 38.1713 487.416 36.822 487.416 35.258ZM509.497 35.166C509.497 32.59 510.003 30.3053 511.015 28.312C512.057 26.3187 513.453 24.7853 515.201 23.712C516.979 22.6387 518.957 22.102 521.135 22.102C523.036 22.102 524.692 22.4853 526.103 23.252C527.544 24.0187 528.694 24.9847 529.553 26.15V22.516H536.039V48H529.553V44.274C528.725 45.47 527.575 46.4667 526.103 47.264C524.661 48.0307 522.99 48.414 521.089 48.414C518.942 48.414 516.979 47.862 515.201 46.758C513.453 45.654 512.057 44.1053 511.015 42.112C510.003 40.088 509.497 37.7727 509.497 35.166ZM529.553 35.258C529.553 33.694 529.246 32.36 528.633 31.256C528.019 30.1213 527.191 29.2627 526.149 28.68C525.106 28.0667 523.987 27.76 522.791 27.76C521.595 27.76 520.491 28.0513 519.479 28.634C518.467 29.2167 517.639 30.0753 516.995 31.21C516.381 32.314 516.075 33.6327 516.075 35.166C516.075 36.6993 516.381 38.0487 516.995 39.214C517.639 40.3487 518.467 41.2227 519.479 41.836C520.521 42.4493 521.625 42.756 522.791 42.756C523.987 42.756 525.106 42.4647 526.149 41.882C527.191 41.2687 528.019 40.41 528.633 39.306C529.246 38.1713 529.553 36.822 529.553 35.258ZM556.45 22.148C559.486 22.148 561.94 23.114 563.81 25.046C565.681 26.9473 566.616 29.6153 566.616 33.05V48H560.176V33.924C560.176 31.9 559.67 30.3513 558.658 29.278C557.646 28.174 556.266 27.622 554.518 27.622C552.74 27.622 551.329 28.174 550.286 29.278C549.274 30.3513 548.768 31.9 548.768 33.924V48H542.328V22.516H548.768V25.69C549.627 24.586 550.716 23.7273 552.034 23.114C553.384 22.47 554.856 22.148 556.45 22.148ZM597.12 22.516L581.342 60.052H574.488L580.008 47.356L569.796 22.516H577.018L583.596 40.318L590.266 22.516H597.12ZM32.704 79.892L21.848 100.822V112H15.408V100.822L4.506 79.892H11.774L18.674 94.566L25.528 79.892H32.704ZM47.7341 112.414C45.2808 112.414 43.0728 111.877 41.1101 110.804C39.1475 109.7 37.5988 108.151 36.4641 106.158C35.3601 104.165 34.8081 101.865 34.8081 99.258C34.8081 96.6513 35.3755 94.3513 36.5101 92.358C37.6755 90.3647 39.2548 88.8313 41.2481 87.758C43.2415 86.654 45.4648 86.102 47.9181 86.102C50.3715 86.102 52.5948 86.654 54.5881 87.758C56.5815 88.8313 58.1455 90.3647 59.2801 92.358C60.4455 94.3513 61.0281 96.6513 61.0281 99.258C61.0281 101.865 60.4301 104.165 59.2341 106.158C58.0688 108.151 56.4741 109.7 54.4501 110.804C52.4568 111.877 50.2181 112.414 47.7341 112.414ZM47.7341 106.802C48.8995 106.802 49.9881 106.526 51.0001 105.974C52.0428 105.391 52.8708 104.533 53.4841 103.398C54.0975 102.263 54.4041 100.883 54.4041 99.258C54.4041 96.8353 53.7601 94.98 52.4721 93.692C51.2148 92.3733 49.6661 91.714 47.8261 91.714C45.9861 91.714 44.4375 92.3733 43.1801 93.692C41.9535 94.98 41.3401 96.8353 41.3401 99.258C41.3401 101.681 41.9381 103.551 43.1341 104.87C44.3608 106.158 45.8941 106.802 47.7341 106.802ZM89.8101 86.516V112H83.3241V108.78C82.4961 109.884 81.4075 110.758 80.0581 111.402C78.7395 112.015 77.2981 112.322 75.7341 112.322C73.7408 112.322 71.9775 111.908 70.4441 111.08C68.9108 110.221 67.6995 108.979 66.8101 107.354C65.9515 105.698 65.5221 103.735 65.5221 101.466V86.516H71.9621V100.546C71.9621 102.57 72.4681 104.134 73.4801 105.238C74.4921 106.311 75.8721 106.848 77.6201 106.848C79.3988 106.848 80.7941 106.311 81.8061 105.238C82.8181 104.134 83.3241 102.57 83.3241 100.546V86.516H89.8101ZM118.014 79.892V85.09H109.458V112H103.018V85.09H94.4622V79.892H118.014ZM146.771 86.516V112H140.285V108.78C139.457 109.884 138.368 110.758 137.019 111.402C135.7 112.015 134.259 112.322 132.695 112.322C130.702 112.322 128.938 111.908 127.405 111.08C125.872 110.221 124.66 108.979 123.771 107.354C122.912 105.698 122.483 103.735 122.483 101.466V86.516H128.923V100.546C128.923 102.57 129.429 104.134 130.441 105.238C131.453 106.311 132.833 106.848 134.581 106.848C136.36 106.848 137.755 106.311 138.767 105.238C139.779 104.134 140.285 102.57 140.285 100.546V86.516H146.771ZM159.565 90.242C160.393 89.0153 161.528 88.0187 162.969 87.252C164.441 86.4853 166.113 86.102 167.983 86.102C170.161 86.102 172.123 86.6387 173.871 87.712C175.65 88.7853 177.045 90.3187 178.057 92.312C179.1 94.2747 179.621 96.5593 179.621 99.166C179.621 101.773 179.1 104.088 178.057 106.112C177.045 108.105 175.65 109.654 173.871 110.758C172.123 111.862 170.161 112.414 167.983 112.414C166.082 112.414 164.411 112.046 162.969 111.31C161.559 110.543 160.424 109.562 159.565 108.366V112H153.125V77.96H159.565V90.242ZM173.043 99.166C173.043 97.6327 172.721 96.314 172.077 95.21C171.464 94.0753 170.636 93.2167 169.593 92.634C168.581 92.0513 167.477 91.76 166.281 91.76C165.116 91.76 164.012 92.0667 162.969 92.68C161.957 93.2627 161.129 94.1213 160.485 95.256C159.872 96.3907 159.565 97.7247 159.565 99.258C159.565 100.791 159.872 102.125 160.485 103.26C161.129 104.395 161.957 105.269 162.969 105.882C164.012 106.465 165.116 106.756 166.281 106.756C167.477 106.756 168.581 106.449 169.593 105.836C170.636 105.223 171.464 104.349 172.077 103.214C172.721 102.079 173.043 100.73 173.043 99.166ZM207.991 98.706C207.991 99.626 207.93 100.454 207.807 101.19H189.177C189.33 103.03 189.974 104.471 191.109 105.514C192.244 106.557 193.639 107.078 195.295 107.078C197.687 107.078 199.389 106.051 200.401 103.996H207.347C206.611 106.449 205.2 108.473 203.115 110.068C201.03 111.632 198.469 112.414 195.433 112.414C192.98 112.414 190.772 111.877 188.809 110.804C186.877 109.7 185.359 108.151 184.255 106.158C183.182 104.165 182.645 101.865 182.645 99.258C182.645 96.6207 183.182 94.3053 184.255 92.312C185.328 90.3187 186.831 88.7853 188.763 87.712C190.695 86.6387 192.918 86.102 195.433 86.102C197.856 86.102 200.018 86.6233 201.919 87.666C203.851 88.7087 205.338 90.196 206.381 92.128C207.454 94.0293 207.991 96.222 207.991 98.706ZM201.321 96.866C201.29 95.21 200.692 93.8913 199.527 92.91C198.362 91.898 196.936 91.392 195.249 91.392C193.654 91.392 192.305 91.8827 191.201 92.864C190.128 93.8147 189.468 95.1487 189.223 96.866H201.321ZM234.279 106.066L240.719 86.516H247.573L238.143 112H230.323L220.939 86.516H227.839L234.279 106.066ZM254.456 83.48C253.321 83.48 252.37 83.1273 251.604 82.422C250.868 81.686 250.5 80.7813 250.5 79.708C250.5 78.6347 250.868 77.7453 251.604 77.04C252.37 76.304 253.321 75.936 254.456 75.936C255.59 75.936 256.526 76.304 257.262 77.04C258.028 77.7453 258.412 78.6347 258.412 79.708C258.412 80.7813 258.028 81.686 257.262 82.422C256.526 83.1273 255.59 83.48 254.456 83.48ZM257.63 86.516V112H251.19V86.516H257.63ZM262.336 99.166C262.336 96.59 262.842 94.3053 263.854 92.312C264.897 90.3187 266.308 88.7853 268.086 87.712C269.865 86.6387 271.843 86.102 274.02 86.102C275.676 86.102 277.256 86.47 278.758 87.206C280.261 87.9113 281.457 88.862 282.346 90.058V77.96H288.878V112H282.346V108.228C281.549 109.485 280.43 110.497 278.988 111.264C277.547 112.031 275.876 112.414 273.974 112.414C271.828 112.414 269.865 111.862 268.086 110.758C266.308 109.654 264.897 108.105 263.854 106.112C262.842 104.088 262.336 101.773 262.336 99.166ZM282.392 99.258C282.392 97.694 282.086 96.36 281.472 95.256C280.859 94.1213 280.031 93.2627 278.988 92.68C277.946 92.0667 276.826 91.76 275.63 91.76C274.434 91.76 273.33 92.0513 272.318 92.634C271.306 93.2167 270.478 94.0753 269.834 95.21C269.221 96.314 268.914 97.6327 268.914 99.166C268.914 100.699 269.221 102.049 269.834 103.214C270.478 104.349 271.306 105.223 272.318 105.836C273.361 106.449 274.465 106.756 275.63 106.756C276.826 106.756 277.946 106.465 278.988 105.882C280.031 105.269 280.859 104.41 281.472 103.306C282.086 102.171 282.392 100.822 282.392 99.258ZM318.858 98.706C318.858 99.626 318.797 100.454 318.674 101.19H300.044C300.197 103.03 300.841 104.471 301.976 105.514C303.111 106.557 304.506 107.078 306.162 107.078C308.554 107.078 310.256 106.051 311.268 103.996H318.214C317.478 106.449 316.067 108.473 313.982 110.068C311.897 111.632 309.336 112.414 306.3 112.414C303.847 112.414 301.639 111.877 299.676 110.804C297.744 109.7 296.226 108.151 295.122 106.158C294.049 104.165 293.512 101.865 293.512 99.258C293.512 96.6207 294.049 94.3053 295.122 92.312C296.195 90.3187 297.698 88.7853 299.63 87.712C301.562 86.6387 303.785 86.102 306.3 86.102C308.723 86.102 310.885 86.6233 312.786 87.666C314.718 88.7087 316.205 90.196 317.248 92.128C318.321 94.0293 318.858 96.222 318.858 98.706ZM312.188 96.866C312.157 95.21 311.559 93.8913 310.394 92.91C309.229 91.898 307.803 91.392 306.116 91.392C304.521 91.392 303.172 91.8827 302.068 92.864C300.995 93.8147 300.335 95.1487 300.09 96.866H312.188ZM334.875 112.414C332.421 112.414 330.213 111.877 328.251 110.804C326.288 109.7 324.739 108.151 323.605 106.158C322.501 104.165 321.949 101.865 321.949 99.258C321.949 96.6513 322.516 94.3513 323.651 92.358C324.816 90.3647 326.395 88.8313 328.389 87.758C330.382 86.654 332.605 86.102 335.059 86.102C337.512 86.102 339.735 86.654 341.729 87.758C343.722 88.8313 345.286 90.3647 346.421 92.358C347.586 94.3513 348.169 96.6513 348.169 99.258C348.169 101.865 347.571 104.165 346.375 106.158C345.209 108.151 343.615 109.7 341.591 110.804C339.597 111.877 337.359 112.414 334.875 112.414ZM334.875 106.802C336.04 106.802 337.129 106.526 338.141 105.974C339.183 105.391 340.011 104.533 340.625 103.398C341.238 102.263 341.545 100.883 341.545 99.258C341.545 96.8353 340.901 94.98 339.613 93.692C338.355 92.3733 336.807 91.714 334.967 91.714C333.127 91.714 331.578 92.3733 330.321 93.692C329.094 94.98 328.481 96.8353 328.481 99.258C328.481 101.681 329.079 103.551 330.275 104.87C331.501 106.158 333.035 106.802 334.875 106.802ZM397.46 91.806H392.998V112H386.466V91.806H383.568V86.516H386.466V85.228C386.466 82.1 387.355 79.8 389.134 78.328C390.912 76.856 393.596 76.166 397.184 76.258V81.686C395.62 81.6553 394.531 81.916 393.918 82.468C393.304 83.02 392.998 84.0167 392.998 85.458V86.516H397.46V91.806ZM412.949 112.414C410.496 112.414 408.288 111.877 406.325 110.804C404.362 109.7 402.814 108.151 401.679 106.158C400.575 104.165 400.023 101.865 400.023 99.258C400.023 96.6513 400.59 94.3513 401.725 92.358C402.89 90.3647 404.47 88.8313 406.463 87.758C408.456 86.654 410.68 86.102 413.133 86.102C415.586 86.102 417.81 86.654 419.803 87.758C421.796 88.8313 423.36 90.3647 424.495 92.358C425.66 94.3513 426.243 96.6513 426.243 99.258C426.243 101.865 425.645 104.165 424.449 106.158C423.284 108.151 421.689 109.7 419.665 110.804C417.672 111.877 415.433 112.414 412.949 112.414ZM412.949 106.802C414.114 106.802 415.203 106.526 416.215 105.974C417.258 105.391 418.086 104.533 418.699 103.398C419.312 102.263 419.619 100.883 419.619 99.258C419.619 96.8353 418.975 94.98 417.687 93.692C416.43 92.3733 414.881 91.714 413.041 91.714C411.201 91.714 409.652 92.3733 408.395 93.692C407.168 94.98 406.555 96.8353 406.555 99.258C406.555 101.681 407.153 103.551 408.349 104.87C409.576 106.158 411.109 106.802 412.949 106.802ZM437.407 90.472C438.235 89.1227 439.308 88.0647 440.627 87.298C441.976 86.5313 443.51 86.148 445.227 86.148V92.91H443.525C441.501 92.91 439.968 93.3853 438.925 94.336C437.913 95.2867 437.407 96.9427 437.407 99.304V112H430.967V86.516H437.407V90.472ZM472.21 91.806H467.748V112H461.216V91.806H458.318V86.516H461.216V85.228C461.216 82.1 462.105 79.8 463.884 78.328C465.662 76.856 468.346 76.166 471.934 76.258V81.686C470.37 81.6553 469.281 81.916 468.668 82.468C468.054 83.02 467.748 84.0167 467.748 85.458V86.516H472.21V91.806ZM482.823 90.472C483.651 89.1227 484.724 88.0647 486.043 87.298C487.392 86.5313 488.926 86.148 490.643 86.148V92.91H488.941C486.917 92.91 485.384 93.3853 484.341 94.336C483.329 95.2867 482.823 96.9427 482.823 99.304V112H476.383V86.516H482.823V90.472ZM518.671 98.706C518.671 99.626 518.609 100.454 518.487 101.19H499.857C500.01 103.03 500.654 104.471 501.789 105.514C502.923 106.557 504.319 107.078 505.975 107.078C508.367 107.078 510.069 106.051 511.081 103.996H518.027C517.291 106.449 515.88 108.473 513.795 110.068C511.709 111.632 509.149 112.414 506.113 112.414C503.659 112.414 501.451 111.877 499.489 110.804C497.557 109.7 496.039 108.151 494.935 106.158C493.861 104.165 493.325 101.865 493.325 99.258C493.325 96.6207 493.861 94.3053 494.935 92.312C496.008 90.3187 497.511 88.7853 499.443 87.712C501.375 86.6387 503.598 86.102 506.113 86.102C508.535 86.102 510.697 86.6233 512.599 87.666C514.531 88.7087 516.018 90.196 517.061 92.128C518.134 94.0293 518.671 96.222 518.671 98.706ZM512.001 96.866C511.97 95.21 511.372 93.8913 510.207 92.91C509.041 91.898 507.615 91.392 505.929 91.392C504.334 91.392 502.985 91.8827 501.881 92.864C500.807 93.8147 500.148 95.1487 499.903 96.866H512.001ZM547.061 98.706C547.061 99.626 547 100.454 546.877 101.19H528.247C528.401 103.03 529.045 104.471 530.179 105.514C531.314 106.557 532.709 107.078 534.365 107.078C536.757 107.078 538.459 106.051 539.471 103.996H546.417C545.681 106.449 544.271 108.473 542.185 110.068C540.1 111.632 537.539 112.414 534.503 112.414C532.05 112.414 529.842 111.877 527.879 110.804C525.947 109.7 524.429 108.151 523.325 106.158C522.252 104.165 521.715 101.865 521.715 99.258C521.715 96.6207 522.252 94.3053 523.325 92.312C524.399 90.3187 525.901 88.7853 527.833 87.712C529.765 86.6387 531.989 86.102 534.503 86.102C536.926 86.102 539.088 86.6233 540.989 87.666C542.921 88.7087 544.409 90.196 545.451 92.128C546.525 94.0293 547.061 96.222 547.061 98.706ZM540.391 96.866C540.361 95.21 539.763 93.8913 538.597 92.91C537.432 91.898 536.006 91.392 534.319 91.392C532.725 91.392 531.375 91.8827 530.271 92.864C529.198 93.8147 528.539 95.1487 528.293 96.866H540.391ZM560.088 79.34L559.352 101.558H553.924L553.142 79.34H560.088ZM556.776 112.322C555.611 112.322 554.645 111.969 553.878 111.264C553.142 110.528 552.774 109.623 552.774 108.55C552.774 107.477 553.142 106.587 553.878 105.882C554.645 105.146 555.611 104.778 556.776 104.778C557.911 104.778 558.846 105.146 559.582 105.882C560.318 106.587 560.686 107.477 560.686 108.55C560.686 109.623 560.318 110.528 559.582 111.264C558.846 111.969 557.911 112.322 556.776 112.322Z" fill="#1F242D"/>
</g>
<defs>
<filter id="filter0_d_14_413" x="0.505981" y="11.936" width="600.615" height="108.478" filterUnits="userSpaceOnUse" color-interpolation-filters="sRGB">
<feFlood flood-opacity="0" result="BackgroundImageFix"/>
<feColorMatrix in="SourceAlpha" type="matrix" values="0 0 0 0 0 0 0 0 0 0 0 0 0 0 0 0 0 0 127 0" result="hardAlpha"/>
<feOffset dy="4"/>
<feGaussianBlur stdDeviation="2"/>
<feComposite in2="hardAlpha" operator="out"/>
<feColorMatrix type="matrix" values="0 0 0 0 0 0 0 0 0 0 0 0 0 0 0 0 0 0 0.04 0"/>
<feBlend mode="normal" in2="BackgroundImageFix" result="effect1_dropShadow_14_413"/>
<feBlend mode="normal" in="SourceGraphic" in2="effect1_dropShadow_14_413" result="shape"/>
</filter>
</defs>
</svg>
