<svg width="633" height="134" viewBox="0 0 633 134" fill="none" xmlns="http://www.w3.org/2000/svg">
<path d="M375.603 67H596L571.397 129H351L375.603 67Z" fill="#F7D73B"/>
<g filter="url(#filter0_d_14_415)">
<path d="M13.614 42.894H24.194V48H7.174V15.892H13.614V42.894ZM51.9773 34.706C51.9773 35.626 51.916 36.454 51.7933 37.19H33.1633C33.3166 39.03 33.9606 40.4713 35.0953 41.514C36.2299 42.5567 37.6253 43.078 39.2813 43.078C41.6733 43.078 43.3753 42.0507 44.3873 39.996H51.3333C50.5973 42.4493 49.1866 44.4733 47.1013 46.068C45.0159 47.632 42.4553 48.414 39.4193 48.414C36.9659 48.414 34.7579 47.8773 32.7953 46.804C30.8633 45.7 29.3453 44.1513 28.2413 42.158C27.1679 40.1647 26.6313 37.8647 26.6313 35.258C26.6313 32.6207 27.1679 30.3053 28.2413 28.312C29.3146 26.3187 30.8173 24.7853 32.7493 23.712C34.6813 22.6387 36.9046 22.102 39.4193 22.102C41.8419 22.102 44.0039 22.6233 45.9053 23.666C47.8373 24.7087 49.3246 26.196 50.3673 28.128C51.4406 30.0293 51.9773 32.222 51.9773 34.706ZM45.3073 32.866C45.2766 31.21 44.6786 29.8913 43.5133 28.91C42.3479 27.898 40.9219 27.392 39.2353 27.392C37.6406 27.392 36.2913 27.8827 35.1873 28.864C34.1139 29.8147 33.4546 31.1487 33.2093 32.866H45.3073ZM55.0219 35.166C55.0219 32.59 55.5279 30.3053 56.5399 28.312C57.5826 26.3187 58.9779 24.7853 60.7259 23.712C62.5046 22.6387 64.4826 22.102 66.6599 22.102C68.5612 22.102 70.2172 22.4853 71.6279 23.252C73.0692 24.0187 74.2192 24.9847 75.0779 26.15V22.516H81.5639V48H75.0779V44.274C74.2499 45.47 73.0999 46.4667 71.6279 47.264C70.1866 48.0307 68.5152 48.414 66.6139 48.414C64.4672 48.414 62.5046 47.862 60.7259 46.758C58.9779 45.654 57.5826 44.1053 56.5399 42.112C55.5279 40.088 55.0219 37.7727 55.0219 35.166ZM75.0779 35.258C75.0779 33.694 74.7712 32.36 74.1579 31.256C73.5446 30.1213 72.7166 29.2627 71.6739 28.68C70.6312 28.0667 69.5119 27.76 68.3159 27.76C67.1199 27.76 66.0159 28.0513 65.0039 28.634C63.9919 29.2167 63.1639 30.0753 62.5199 31.21C61.9066 32.314 61.5999 33.6327 61.5999 35.166C61.5999 36.6993 61.9066 38.0487 62.5199 39.214C63.1639 40.3487 63.9919 41.2227 65.0039 41.836C66.0466 42.4493 67.1506 42.756 68.3159 42.756C69.5119 42.756 70.6312 42.4647 71.6739 41.882C72.7166 41.2687 73.5446 40.41 74.1579 39.306C74.7712 38.1713 75.0779 36.822 75.0779 35.258ZM94.2937 26.472C95.1217 25.1227 96.195 24.0647 97.5137 23.298C98.863 22.5313 100.396 22.148 102.114 22.148V28.91H100.412C98.3877 28.91 96.8544 29.3853 95.8117 30.336C94.7997 31.2867 94.2937 32.9427 94.2937 35.304V48H87.8537V22.516H94.2937V26.472ZM120.573 22.148C123.609 22.148 126.063 23.114 127.933 25.046C129.804 26.9473 130.739 29.6153 130.739 33.05V48H124.299V33.924C124.299 31.9 123.793 30.3513 122.781 29.278C121.769 28.174 120.389 27.622 118.641 27.622C116.863 27.622 115.452 28.174 114.409 29.278C113.397 30.3513 112.891 31.9 112.891 33.924V48H106.451V22.516H112.891V25.69C113.75 24.586 114.839 23.7273 116.157 23.114C117.507 22.47 118.979 22.148 120.573 22.148ZM157.806 22.102C159.708 22.102 161.379 22.4853 162.82 23.252C164.262 23.988 165.396 24.954 166.224 26.15V22.516H172.71V48.184C172.71 50.5453 172.235 52.646 171.284 54.486C170.334 56.3567 168.908 57.8287 167.006 58.902C165.105 60.006 162.805 60.558 160.106 60.558C156.488 60.558 153.513 59.7147 151.182 58.028C148.882 56.3413 147.579 54.0413 147.272 51.128H153.666C154.004 52.2933 154.724 53.2133 155.828 53.888C156.963 54.5933 158.328 54.946 159.922 54.946C161.793 54.946 163.311 54.3787 164.476 53.244C165.642 52.14 166.224 50.4533 166.224 48.184V44.228C165.396 45.424 164.246 46.4207 162.774 47.218C161.333 48.0153 159.677 48.414 157.806 48.414C155.66 48.414 153.697 47.862 151.918 46.758C150.14 45.654 148.729 44.1053 147.686 42.112C146.674 40.088 146.168 37.7727 146.168 35.166C146.168 32.59 146.674 30.3053 147.686 28.312C148.729 26.3187 150.124 24.7853 151.872 23.712C153.651 22.6387 155.629 22.102 157.806 22.102ZM166.224 35.258C166.224 33.694 165.918 32.36 165.304 31.256C164.691 30.1213 163.863 29.2627 162.82 28.68C161.778 28.0667 160.658 27.76 159.462 27.76C158.266 27.76 157.162 28.0513 156.15 28.634C155.138 29.2167 154.31 30.0753 153.666 31.21C153.053 32.314 152.746 33.6327 152.746 35.166C152.746 36.6993 153.053 38.0487 153.666 39.214C154.31 40.3487 155.138 41.2227 156.15 41.836C157.193 42.4493 158.297 42.756 159.462 42.756C160.658 42.756 161.778 42.4647 162.82 41.882C163.863 41.2687 164.691 40.41 165.304 39.306C165.918 38.1713 166.224 36.822 166.224 35.258ZM202.69 34.706C202.69 35.626 202.629 36.454 202.506 37.19H183.876C184.03 39.03 184.674 40.4713 185.808 41.514C186.943 42.5567 188.338 43.078 189.994 43.078C192.386 43.078 194.088 42.0507 195.1 39.996H202.046C201.31 42.4493 199.9 44.4733 197.814 46.068C195.729 47.632 193.168 48.414 190.132 48.414C187.679 48.414 185.471 47.8773 183.508 46.804C181.576 45.7 180.058 44.1513 178.954 42.158C177.881 40.1647 177.344 37.8647 177.344 35.258C177.344 32.6207 177.881 30.3053 178.954 28.312C180.028 26.3187 181.53 24.7853 183.462 23.712C185.394 22.6387 187.618 22.102 190.132 22.102C192.555 22.102 194.717 22.6233 196.618 23.666C198.55 24.7087 200.038 26.196 201.08 28.128C202.154 30.0293 202.69 32.222 202.69 34.706ZM196.02 32.866C195.99 31.21 195.392 29.8913 194.226 28.91C193.061 27.898 191.635 27.392 189.948 27.392C188.354 27.392 187.004 27.8827 185.9 28.864C184.827 29.8147 184.168 31.1487 183.922 32.866H196.02ZM213.831 26.472C214.659 25.1227 215.732 24.0647 217.051 23.298C218.4 22.5313 219.933 22.148 221.651 22.148V28.91H219.949C217.925 28.91 216.391 29.3853 215.349 30.336C214.337 31.2867 213.831 32.9427 213.831 35.304V48H207.391V22.516H213.831V26.472ZM257.636 22.148C260.764 22.148 263.279 23.114 265.18 25.046C267.112 26.9473 268.078 29.6153 268.078 33.05V48H261.638V33.924C261.638 31.9307 261.132 30.4127 260.12 29.37C259.108 28.2967 257.728 27.76 255.98 27.76C254.232 27.76 252.837 28.2967 251.794 29.37C250.782 30.4127 250.276 31.9307 250.276 33.924V48H243.836V33.924C243.836 31.9307 243.33 30.4127 242.318 29.37C241.306 28.2967 239.926 27.76 238.178 27.76C236.4 27.76 234.989 28.2967 233.946 29.37C232.934 30.4127 232.428 31.9307 232.428 33.924V48H225.988V22.516H232.428V25.598C233.256 24.5247 234.314 23.6813 235.602 23.068C236.921 22.4547 238.362 22.148 239.926 22.148C241.92 22.148 243.698 22.5773 245.262 23.436C246.826 24.264 248.038 25.46 248.896 27.024C249.724 25.552 250.92 24.3713 252.484 23.482C254.079 22.5927 255.796 22.148 257.636 22.148ZM272.534 35.166C272.534 32.59 273.04 30.3053 274.052 28.312C275.094 26.3187 276.49 24.7853 278.238 23.712C280.016 22.6387 281.994 22.102 284.172 22.102C286.073 22.102 287.729 22.4853 289.14 23.252C290.581 24.0187 291.731 24.9847 292.59 26.15V22.516H299.076V48H292.59V44.274C291.762 45.47 290.612 46.4667 289.14 47.264C287.698 48.0307 286.027 48.414 284.126 48.414C281.979 48.414 280.016 47.862 278.238 46.758C276.49 45.654 275.094 44.1053 274.052 42.112C273.04 40.088 272.534 37.7727 272.534 35.166ZM292.59 35.258C292.59 33.694 292.283 32.36 291.67 31.256C291.056 30.1213 290.228 29.2627 289.186 28.68C288.143 28.0667 287.024 27.76 285.828 27.76C284.632 27.76 283.528 28.0513 282.516 28.634C281.504 29.2167 280.676 30.0753 280.032 31.21C279.418 32.314 279.112 33.6327 279.112 35.166C279.112 36.6993 279.418 38.0487 280.032 39.214C280.676 40.3487 281.504 41.2227 282.516 41.836C283.558 42.4493 284.662 42.756 285.828 42.756C287.024 42.756 288.143 42.4647 289.186 41.882C290.228 41.2687 291.056 40.41 291.67 39.306C292.283 38.1713 292.59 36.822 292.59 35.258ZM319.487 22.148C322.523 22.148 324.977 23.114 326.847 25.046C328.718 26.9473 329.653 29.6153 329.653 33.05V48H323.213V33.924C323.213 31.9 322.707 30.3513 321.695 29.278C320.683 28.174 319.303 27.622 317.555 27.622C315.777 27.622 314.366 28.174 313.323 29.278C312.311 30.3513 311.805 31.9 311.805 33.924V48H305.365V22.516H311.805V25.69C312.664 24.586 313.753 23.7273 315.071 23.114C316.421 22.47 317.893 22.148 319.487 22.148ZM370.796 22.516V48H364.31V44.78C363.482 45.884 362.394 46.758 361.044 47.402C359.726 48.0153 358.284 48.322 356.72 48.322C354.727 48.322 352.964 47.908 351.43 47.08C349.897 46.2213 348.686 44.9793 347.796 43.354C346.938 41.698 346.508 39.7353 346.508 37.466V22.516H352.948V36.546C352.948 38.57 353.454 40.134 354.466 41.238C355.478 42.3113 356.858 42.848 358.606 42.848C360.385 42.848 361.78 42.3113 362.792 41.238C363.804 40.134 364.31 38.57 364.31 36.546V22.516H370.796ZM386.903 48.414C384.817 48.414 382.947 48.046 381.291 47.31C379.635 46.5433 378.316 45.516 377.335 44.228C376.384 42.94 375.863 41.514 375.771 39.95H382.257C382.379 40.9313 382.855 41.744 383.683 42.388C384.541 43.032 385.599 43.354 386.857 43.354C388.083 43.354 389.034 43.1087 389.709 42.618C390.414 42.1273 390.767 41.4987 390.767 40.732C390.767 39.904 390.337 39.2907 389.479 38.892C388.651 38.4627 387.317 38.0027 385.477 37.512C383.575 37.052 382.011 36.5767 380.785 36.086C379.589 35.5953 378.546 34.844 377.657 33.832C376.798 32.82 376.369 31.4553 376.369 29.738C376.369 28.3273 376.767 27.0393 377.565 25.874C378.393 24.7087 379.558 23.7887 381.061 23.114C382.594 22.4393 384.388 22.102 386.443 22.102C389.479 22.102 391.901 22.8687 393.711 24.402C395.52 25.9047 396.517 27.944 396.701 30.52H390.537C390.445 29.508 390.015 28.7107 389.249 28.128C388.513 27.5147 387.516 27.208 386.259 27.208C385.093 27.208 384.189 27.4227 383.545 27.852C382.931 28.2813 382.625 28.8793 382.625 29.646C382.625 30.5047 383.054 31.164 383.913 31.624C384.771 32.0533 386.105 32.498 387.915 32.958C389.755 33.418 391.273 33.8933 392.469 34.384C393.665 34.8747 394.692 35.6413 395.551 36.684C396.44 37.696 396.9 39.0453 396.931 40.732C396.931 42.204 396.517 43.5227 395.689 44.688C394.891 45.8533 393.726 46.7733 392.193 47.448C390.69 48.092 388.927 48.414 386.903 48.414ZM405.483 19.48C404.348 19.48 403.398 19.1273 402.631 18.422C401.895 17.686 401.527 16.7813 401.527 15.708C401.527 14.6347 401.895 13.7453 402.631 13.04C403.398 12.304 404.348 11.936 405.483 11.936C406.618 11.936 407.553 12.304 408.289 13.04C409.056 13.7453 409.439 14.6347 409.439 15.708C409.439 16.7813 409.056 17.686 408.289 18.422C407.553 19.1273 406.618 19.48 405.483 19.48ZM408.657 22.516V48H402.217V22.516H408.657ZM429.142 22.148C432.178 22.148 434.631 23.114 436.502 25.046C438.372 26.9473 439.308 29.6153 439.308 33.05V48H432.868V33.924C432.868 31.9 432.362 30.3513 431.35 29.278C430.338 28.174 428.958 27.622 427.21 27.622C425.431 27.622 424.02 28.174 422.978 29.278C421.966 30.3513 421.46 31.9 421.46 33.924V48H415.02V22.516H421.46V25.69C422.318 24.586 423.407 23.7273 424.726 23.114C426.075 22.47 427.547 22.148 429.142 22.148ZM455.414 22.102C457.315 22.102 458.986 22.4853 460.428 23.252C461.869 23.988 463.004 24.954 463.832 26.15V22.516H470.318V48.184C470.318 50.5453 469.842 52.646 468.892 54.486C467.941 56.3567 466.515 57.8287 464.614 58.902C462.712 60.006 460.412 60.558 457.714 60.558C454.095 60.558 451.12 59.7147 448.79 58.028C446.49 56.3413 445.186 54.0413 444.88 51.128H451.274C451.611 52.2933 452.332 53.2133 453.436 53.888C454.57 54.5933 455.935 54.946 457.53 54.946C459.4 54.946 460.918 54.3787 462.084 53.244C463.249 52.14 463.832 50.4533 463.832 48.184V44.228C463.004 45.424 461.854 46.4207 460.382 47.218C458.94 48.0153 457.284 48.414 455.414 48.414C453.267 48.414 451.304 47.862 449.526 46.758C447.747 45.654 446.336 44.1053 445.294 42.112C444.282 40.088 443.776 37.7727 443.776 35.166C443.776 32.59 444.282 30.3053 445.294 28.312C446.336 26.3187 447.732 24.7853 449.48 23.712C451.258 22.6387 453.236 22.102 455.414 22.102ZM463.832 35.258C463.832 33.694 463.525 32.36 462.912 31.256C462.298 30.1213 461.47 29.2627 460.428 28.68C459.385 28.0667 458.266 27.76 457.07 27.76C455.874 27.76 454.77 28.0513 453.758 28.634C452.746 29.2167 451.918 30.0753 451.274 31.21C450.66 32.314 450.354 33.6327 450.354 35.166C450.354 36.6993 450.66 38.0487 451.274 39.214C451.918 40.3487 452.746 41.2227 453.758 41.836C454.8 42.4493 455.904 42.756 457.07 42.756C458.266 42.756 459.385 42.4647 460.428 41.882C461.47 41.2687 462.298 40.41 462.912 39.306C463.525 38.1713 463.832 36.822 463.832 35.258ZM485.913 35.166C485.913 32.59 486.419 30.3053 487.431 28.312C488.473 26.3187 489.869 24.7853 491.617 23.712C493.395 22.6387 495.373 22.102 497.551 22.102C499.452 22.102 501.108 22.4853 502.519 23.252C503.96 24.0187 505.11 24.9847 505.969 26.15V22.516H512.455V48H505.969V44.274C505.141 45.47 503.991 46.4667 502.519 47.264C501.077 48.0307 499.406 48.414 497.505 48.414C495.358 48.414 493.395 47.862 491.617 46.758C489.869 45.654 488.473 44.1053 487.431 42.112C486.419 40.088 485.913 37.7727 485.913 35.166ZM505.969 35.258C505.969 33.694 505.662 32.36 505.049 31.256C504.435 30.1213 503.607 29.2627 502.565 28.68C501.522 28.0667 500.403 27.76 499.207 27.76C498.011 27.76 496.907 28.0513 495.895 28.634C494.883 29.2167 494.055 30.0753 493.411 31.21C492.797 32.314 492.491 33.6327 492.491 35.166C492.491 36.6993 492.797 38.0487 493.411 39.214C494.055 40.3487 494.883 41.2227 495.895 41.836C496.937 42.4493 498.041 42.756 499.207 42.756C500.403 42.756 501.522 42.4647 502.565 41.882C503.607 41.2687 504.435 40.41 505.049 39.306C505.662 38.1713 505.969 36.822 505.969 35.258ZM532.866 22.148C535.902 22.148 538.356 23.114 540.226 25.046C542.097 26.9473 543.032 29.6153 543.032 33.05V48H536.592V33.924C536.592 31.9 536.086 30.3513 535.074 29.278C534.062 28.174 532.682 27.622 530.934 27.622C529.156 27.622 527.745 28.174 526.702 29.278C525.69 30.3513 525.184 31.9 525.184 33.924V48H518.744V22.516H525.184V25.69C526.043 24.586 527.132 23.7273 528.45 23.114C529.8 22.47 531.272 22.148 532.866 22.148ZM573.536 22.516L557.758 60.052H550.904L556.424 47.356L546.212 22.516H553.434L560.012 40.318L566.682 22.516H573.536ZM32.704 79.892L21.848 100.822V112H15.408V100.822L4.506 79.892H11.774L18.674 94.566L25.528 79.892H32.704ZM47.7341 112.414C45.2808 112.414 43.0728 111.877 41.1101 110.804C39.1475 109.7 37.5988 108.151 36.4641 106.158C35.3601 104.165 34.8081 101.865 34.8081 99.258C34.8081 96.6513 35.3755 94.3513 36.5101 92.358C37.6755 90.3647 39.2548 88.8313 41.2481 87.758C43.2415 86.654 45.4648 86.102 47.9181 86.102C50.3715 86.102 52.5948 86.654 54.5881 87.758C56.5815 88.8313 58.1455 90.3647 59.2801 92.358C60.4455 94.3513 61.0281 96.6513 61.0281 99.258C61.0281 101.865 60.4301 104.165 59.2341 106.158C58.0688 108.151 56.4741 109.7 54.4501 110.804C52.4568 111.877 50.2181 112.414 47.7341 112.414ZM47.7341 106.802C48.8995 106.802 49.9881 106.526 51.0001 105.974C52.0428 105.391 52.8708 104.533 53.4841 103.398C54.0975 102.263 54.4041 100.883 54.4041 99.258C54.4041 96.8353 53.7601 94.98 52.4721 93.692C51.2148 92.3733 49.6661 91.714 47.8261 91.714C45.9861 91.714 44.4375 92.3733 43.1801 93.692C41.9535 94.98 41.3401 96.8353 41.3401 99.258C41.3401 101.681 41.9381 103.551 43.1341 104.87C44.3608 106.158 45.8941 106.802 47.7341 106.802ZM89.8101 86.516V112H83.3241V108.78C82.4961 109.884 81.4075 110.758 80.0581 111.402C78.7395 112.015 77.2981 112.322 75.7341 112.322C73.7408 112.322 71.9775 111.908 70.4441 111.08C68.9108 110.221 67.6995 108.979 66.8101 107.354C65.9515 105.698 65.5221 103.735 65.5221 101.466V86.516H71.9621V100.546C71.9621 102.57 72.4681 104.134 73.4801 105.238C74.4921 106.311 75.8721 106.848 77.6201 106.848C79.3988 106.848 80.7941 106.311 81.8061 105.238C82.8181 104.134 83.3241 102.57 83.3241 100.546V86.516H89.8101ZM118.014 79.892V85.09H109.458V112H103.018V85.09H94.4622V79.892H118.014ZM146.771 86.516V112H140.285V108.78C139.457 109.884 138.368 110.758 137.019 111.402C135.7 112.015 134.259 112.322 132.695 112.322C130.702 112.322 128.938 111.908 127.405 111.08C125.872 110.221 124.66 108.979 123.771 107.354C122.912 105.698 122.483 103.735 122.483 101.466V86.516H128.923V100.546C128.923 102.57 129.429 104.134 130.441 105.238C131.453 106.311 132.833 106.848 134.581 106.848C136.36 106.848 137.755 106.311 138.767 105.238C139.779 104.134 140.285 102.57 140.285 100.546V86.516H146.771ZM159.565 90.242C160.393 89.0153 161.528 88.0187 162.969 87.252C164.441 86.4853 166.113 86.102 167.983 86.102C170.161 86.102 172.123 86.6387 173.871 87.712C175.65 88.7853 177.045 90.3187 178.057 92.312C179.1 94.2747 179.621 96.5593 179.621 99.166C179.621 101.773 179.1 104.088 178.057 106.112C177.045 108.105 175.65 109.654 173.871 110.758C172.123 111.862 170.161 112.414 167.983 112.414C166.082 112.414 164.411 112.046 162.969 111.31C161.559 110.543 160.424 109.562 159.565 108.366V112H153.125V77.96H159.565V90.242ZM173.043 99.166C173.043 97.6327 172.721 96.314 172.077 95.21C171.464 94.0753 170.636 93.2167 169.593 92.634C168.581 92.0513 167.477 91.76 166.281 91.76C165.116 91.76 164.012 92.0667 162.969 92.68C161.957 93.2627 161.129 94.1213 160.485 95.256C159.872 96.3907 159.565 97.7247 159.565 99.258C159.565 100.791 159.872 102.125 160.485 103.26C161.129 104.395 161.957 105.269 162.969 105.882C164.012 106.465 165.116 106.756 166.281 106.756C167.477 106.756 168.581 106.449 169.593 105.836C170.636 105.223 171.464 104.349 172.077 103.214C172.721 102.079 173.043 100.73 173.043 99.166ZM207.991 98.706C207.991 99.626 207.93 100.454 207.807 101.19H189.177C189.33 103.03 189.974 104.471 191.109 105.514C192.244 106.557 193.639 107.078 195.295 107.078C197.687 107.078 199.389 106.051 200.401 103.996H207.347C206.611 106.449 205.2 108.473 203.115 110.068C201.03 111.632 198.469 112.414 195.433 112.414C192.98 112.414 190.772 111.877 188.809 110.804C186.877 109.7 185.359 108.151 184.255 106.158C183.182 104.165 182.645 101.865 182.645 99.258C182.645 96.6207 183.182 94.3053 184.255 92.312C185.328 90.3187 186.831 88.7853 188.763 87.712C190.695 86.6387 192.918 86.102 195.433 86.102C197.856 86.102 200.018 86.6233 201.919 87.666C203.851 88.7087 205.338 90.196 206.381 92.128C207.454 94.0293 207.991 96.222 207.991 98.706ZM201.321 96.866C201.29 95.21 200.692 93.8913 199.527 92.91C198.362 91.898 196.936 91.392 195.249 91.392C193.654 91.392 192.305 91.8827 191.201 92.864C190.128 93.8147 189.468 95.1487 189.223 96.866H201.321ZM234.279 106.066L240.719 86.516H247.573L238.143 112H230.323L220.939 86.516H227.839L234.279 106.066ZM254.456 83.48C253.321 83.48 252.37 83.1273 251.604 82.422C250.868 81.686 250.5 80.7813 250.5 79.708C250.5 78.6347 250.868 77.7453 251.604 77.04C252.37 76.304 253.321 75.936 254.456 75.936C255.59 75.936 256.526 76.304 257.262 77.04C258.028 77.7453 258.412 78.6347 258.412 79.708C258.412 80.7813 258.028 81.686 257.262 82.422C256.526 83.1273 255.59 83.48 254.456 83.48ZM257.63 86.516V112H251.19V86.516H257.63ZM262.336 99.166C262.336 96.59 262.842 94.3053 263.854 92.312C264.897 90.3187 266.308 88.7853 268.086 87.712C269.865 86.6387 271.843 86.102 274.02 86.102C275.676 86.102 277.256 86.47 278.758 87.206C280.261 87.9113 281.457 88.862 282.346 90.058V77.96H288.878V112H282.346V108.228C281.549 109.485 280.43 110.497 278.988 111.264C277.547 112.031 275.876 112.414 273.974 112.414C271.828 112.414 269.865 111.862 268.086 110.758C266.308 109.654 264.897 108.105 263.854 106.112C262.842 104.088 262.336 101.773 262.336 99.166ZM282.392 99.258C282.392 97.694 282.086 96.36 281.472 95.256C280.859 94.1213 280.031 93.2627 278.988 92.68C277.946 92.0667 276.826 91.76 275.63 91.76C274.434 91.76 273.33 92.0513 272.318 92.634C271.306 93.2167 270.478 94.0753 269.834 95.21C269.221 96.314 268.914 97.6327 268.914 99.166C268.914 100.699 269.221 102.049 269.834 103.214C270.478 104.349 271.306 105.223 272.318 105.836C273.361 106.449 274.465 106.756 275.63 106.756C276.826 106.756 277.946 106.465 278.988 105.882C280.031 105.269 280.859 104.41 281.472 103.306C282.086 102.171 282.392 100.822 282.392 99.258ZM318.858 98.706C318.858 99.626 318.797 100.454 318.674 101.19H300.044C300.197 103.03 300.841 104.471 301.976 105.514C303.111 106.557 304.506 107.078 306.162 107.078C308.554 107.078 310.256 106.051 311.268 103.996H318.214C317.478 106.449 316.067 108.473 313.982 110.068C311.897 111.632 309.336 112.414 306.3 112.414C303.847 112.414 301.639 111.877 299.676 110.804C297.744 109.7 296.226 108.151 295.122 106.158C294.049 104.165 293.512 101.865 293.512 99.258C293.512 96.6207 294.049 94.3053 295.122 92.312C296.195 90.3187 297.698 88.7853 299.63 87.712C301.562 86.6387 303.785 86.102 306.3 86.102C308.723 86.102 310.885 86.6233 312.786 87.666C314.718 88.7087 316.205 90.196 317.248 92.128C318.321 94.0293 318.858 96.222 318.858 98.706ZM312.188 96.866C312.157 95.21 311.559 93.8913 310.394 92.91C309.229 91.898 307.803 91.392 306.116 91.392C304.521 91.392 303.172 91.8827 302.068 92.864C300.995 93.8147 300.335 95.1487 300.09 96.866H312.188ZM334.875 112.414C332.421 112.414 330.213 111.877 328.251 110.804C326.288 109.7 324.739 108.151 323.605 106.158C322.501 104.165 321.949 101.865 321.949 99.258C321.949 96.6513 322.516 94.3513 323.651 92.358C324.816 90.3647 326.395 88.8313 328.389 87.758C330.382 86.654 332.605 86.102 335.059 86.102C337.512 86.102 339.735 86.654 341.729 87.758C343.722 88.8313 345.286 90.3647 346.421 92.358C347.586 94.3513 348.169 96.6513 348.169 99.258C348.169 101.865 347.571 104.165 346.375 106.158C345.209 108.151 343.615 109.7 341.591 110.804C339.597 111.877 337.359 112.414 334.875 112.414ZM334.875 106.802C336.04 106.802 337.129 106.526 338.141 105.974C339.183 105.391 340.011 104.533 340.625 103.398C341.238 102.263 341.545 100.883 341.545 99.258C341.545 96.8353 340.901 94.98 339.613 93.692C338.355 92.3733 336.807 91.714 334.967 91.714C333.127 91.714 331.578 92.3733 330.321 93.692C329.094 94.98 328.481 96.8353 328.481 99.258C328.481 101.681 329.079 103.551 330.275 104.87C331.501 106.158 333.035 106.802 334.875 106.802ZM397.46 91.806H392.998V112H386.466V91.806H383.568V86.516H386.466V85.228C386.466 82.1 387.355 79.8 389.134 78.328C390.912 76.856 393.596 76.166 397.184 76.258V81.686C395.62 81.6553 394.531 81.916 393.918 82.468C393.304 83.02 392.998 84.0167 392.998 85.458V86.516H397.46V91.806ZM412.949 112.414C410.496 112.414 408.288 111.877 406.325 110.804C404.362 109.7 402.814 108.151 401.679 106.158C400.575 104.165 400.023 101.865 400.023 99.258C400.023 96.6513 400.59 94.3513 401.725 92.358C402.89 90.3647 404.47 88.8313 406.463 87.758C408.456 86.654 410.68 86.102 413.133 86.102C415.586 86.102 417.81 86.654 419.803 87.758C421.796 88.8313 423.36 90.3647 424.495 92.358C425.66 94.3513 426.243 96.6513 426.243 99.258C426.243 101.865 425.645 104.165 424.449 106.158C423.284 108.151 421.689 109.7 419.665 110.804C417.672 111.877 415.433 112.414 412.949 112.414ZM412.949 106.802C414.114 106.802 415.203 106.526 416.215 105.974C417.258 105.391 418.086 104.533 418.699 103.398C419.312 102.263 419.619 100.883 419.619 99.258C419.619 96.8353 418.975 94.98 417.687 93.692C416.43 92.3733 414.881 91.714 413.041 91.714C411.201 91.714 409.652 92.3733 408.395 93.692C407.168 94.98 406.555 96.8353 406.555 99.258C406.555 101.681 407.153 103.551 408.349 104.87C409.576 106.158 411.109 106.802 412.949 106.802ZM437.407 90.472C438.235 89.1227 439.308 88.0647 440.627 87.298C441.976 86.5313 443.51 86.148 445.227 86.148V92.91H443.525C441.501 92.91 439.968 93.3853 438.925 94.336C437.913 95.2867 437.407 96.9427 437.407 99.304V112H430.967V86.516H437.407V90.472ZM472.21 91.806H467.748V112H461.216V91.806H458.318V86.516H461.216V85.228C461.216 82.1 462.105 79.8 463.884 78.328C465.662 76.856 468.346 76.166 471.934 76.258V81.686C470.37 81.6553 469.281 81.916 468.668 82.468C468.054 83.02 467.748 84.0167 467.748 85.458V86.516H472.21V91.806ZM482.823 90.472C483.651 89.1227 484.724 88.0647 486.043 87.298C487.392 86.5313 488.926 86.148 490.643 86.148V92.91H488.941C486.917 92.91 485.384 93.3853 484.341 94.336C483.329 95.2867 482.823 96.9427 482.823 99.304V112H476.383V86.516H482.823V90.472ZM518.671 98.706C518.671 99.626 518.609 100.454 518.487 101.19H499.857C500.01 103.03 500.654 104.471 501.789 105.514C502.923 106.557 504.319 107.078 505.975 107.078C508.367 107.078 510.069 106.051 511.081 103.996H518.027C517.291 106.449 515.88 108.473 513.795 110.068C511.709 111.632 509.149 112.414 506.113 112.414C503.659 112.414 501.451 111.877 499.489 110.804C497.557 109.7 496.039 108.151 494.935 106.158C493.861 104.165 493.325 101.865 493.325 99.258C493.325 96.6207 493.861 94.3053 494.935 92.312C496.008 90.3187 497.511 88.7853 499.443 87.712C501.375 86.6387 503.598 86.102 506.113 86.102C508.535 86.102 510.697 86.6233 512.599 87.666C514.531 88.7087 516.018 90.196 517.061 92.128C518.134 94.0293 518.671 96.222 518.671 98.706ZM512.001 96.866C511.97 95.21 511.372 93.8913 510.207 92.91C509.041 91.898 507.615 91.392 505.929 91.392C504.334 91.392 502.985 91.8827 501.881 92.864C500.807 93.8147 500.148 95.1487 499.903 96.866H512.001ZM547.061 98.706C547.061 99.626 547 100.454 546.877 101.19H528.247C528.401 103.03 529.045 104.471 530.179 105.514C531.314 106.557 532.709 107.078 534.365 107.078C536.757 107.078 538.459 106.051 539.471 103.996H546.417C545.681 106.449 544.271 108.473 542.185 110.068C540.1 111.632 537.539 112.414 534.503 112.414C532.05 112.414 529.842 111.877 527.879 110.804C525.947 109.7 524.429 108.151 523.325 106.158C522.252 104.165 521.715 101.865 521.715 99.258C521.715 96.6207 522.252 94.3053 523.325 92.312C524.399 90.3187 525.901 88.7853 527.833 87.712C529.765 86.6387 531.989 86.102 534.503 86.102C536.926 86.102 539.088 86.6233 540.989 87.666C542.921 88.7087 544.409 90.196 545.451 92.128C546.525 94.0293 547.061 96.222 547.061 98.706ZM540.391 96.866C540.361 95.21 539.763 93.8913 538.597 92.91C537.432 91.898 536.006 91.392 534.319 91.392C532.725 91.392 531.375 91.8827 530.271 92.864C529.198 93.8147 528.539 95.1487 528.293 96.866H540.391ZM560.088 79.34L559.352 101.558H553.924L553.142 79.34H560.088ZM556.776 112.322C555.611 112.322 554.645 111.969 553.878 111.264C553.142 110.528 552.774 109.623 552.774 108.55C552.774 107.477 553.142 106.587 553.878 105.882C554.645 105.146 555.611 104.778 556.776 104.778C557.911 104.778 558.846 105.146 559.582 105.882C560.318 106.587 560.686 107.477 560.686 108.55C560.686 109.623 560.318 110.528 559.582 111.264C558.846 111.969 557.911 112.322 556.776 112.322Z" fill="#1F242D"/>
</g>
<defs>
<filter id="filter0_d_14_415" x="0.506104" y="11.936" width="577.03" height="108.478" filterUnits="userSpaceOnUse" color-interpolation-filters="sRGB">
<feFlood flood-opacity="0" result="BackgroundImageFix"/>
<feColorMatrix in="SourceAlpha" type="matrix" values="0 0 0 0 0 0 0 0 0 0 0 0 0 0 0 0 0 0 127 0" result="hardAlpha"/>
<feOffset dy="4"/>
<feGaussianBlur stdDeviation="2"/>
<feComposite in2="hardAlpha" operator="out"/>
<feColorMatrix type="matrix" values="0 0 0 0 0 0 0 0 0 0 0 0 0 0 0 0 0 0 0.04 0"/>
<feBlend mode="normal" in2="BackgroundImageFix" result="effect1_dropShadow_14_415"/>
<feBlend mode="normal" in="SourceGraphic" in2="effect1_dropShadow_14_415" result="shape"/>
</filter>
</defs>
</svg>
