<svg width="605" height="134" viewBox="0 0 605 134" fill="none" xmlns="http://www.w3.org/2000/svg">
<path d="M375.603 67H596L571.397 129H351L375.603 67Z" fill="#F7D73B"/>
<g filter="url(#filter0_d_14_412)">
<path d="M13.614 42.894H24.194V48H7.174V15.892H13.614V42.894ZM51.9773 34.706C51.9773 35.626 51.916 36.454 51.7933 37.19H33.1633C33.3166 39.03 33.9606 40.4713 35.0953 41.514C36.2299 42.5567 37.6253 43.078 39.2813 43.078C41.6733 43.078 43.3753 42.0507 44.3873 39.996H51.3333C50.5973 42.4493 49.1866 44.4733 47.1013 46.068C45.0159 47.632 42.4553 48.414 39.4193 48.414C36.9659 48.414 34.7579 47.8773 32.7953 46.804C30.8633 45.7 29.3453 44.1513 28.2413 42.158C27.1679 40.1647 26.6313 37.8647 26.6313 35.258C26.6313 32.6207 27.1679 30.3053 28.2413 28.312C29.3146 26.3187 30.8173 24.7853 32.7493 23.712C34.6813 22.6387 36.9046 22.102 39.4193 22.102C41.8419 22.102 44.0039 22.6233 45.9053 23.666C47.8373 24.7087 49.3246 26.196 50.3673 28.128C51.4406 30.0293 51.9773 32.222 51.9773 34.706ZM45.3073 32.866C45.2766 31.21 44.6786 29.8913 43.5133 28.91C42.3479 27.898 40.9219 27.392 39.2353 27.392C37.6406 27.392 36.2913 27.8827 35.1873 28.864C34.1139 29.8147 33.4546 31.1487 33.2093 32.866H45.3073ZM55.0219 35.166C55.0219 32.59 55.5279 30.3053 56.5399 28.312C57.5826 26.3187 58.9779 24.7853 60.7259 23.712C62.5046 22.6387 64.4826 22.102 66.6599 22.102C68.5612 22.102 70.2172 22.4853 71.6279 23.252C73.0692 24.0187 74.2192 24.9847 75.0779 26.15V22.516H81.5639V48H75.0779V44.274C74.2499 45.47 73.0999 46.4667 71.6279 47.264C70.1866 48.0307 68.5152 48.414 66.6139 48.414C64.4672 48.414 62.5046 47.862 60.7259 46.758C58.9779 45.654 57.5826 44.1053 56.5399 42.112C55.5279 40.088 55.0219 37.7727 55.0219 35.166ZM75.0779 35.258C75.0779 33.694 74.7712 32.36 74.1579 31.256C73.5446 30.1213 72.7166 29.2627 71.6739 28.68C70.6312 28.0667 69.5119 27.76 68.3159 27.76C67.1199 27.76 66.0159 28.0513 65.0039 28.634C63.9919 29.2167 63.1639 30.0753 62.5199 31.21C61.9066 32.314 61.5999 33.6327 61.5999 35.166C61.5999 36.6993 61.9066 38.0487 62.5199 39.214C63.1639 40.3487 63.9919 41.2227 65.0039 41.836C66.0466 42.4493 67.1506 42.756 68.3159 42.756C69.5119 42.756 70.6312 42.4647 71.6739 41.882C72.7166 41.2687 73.5446 40.41 74.1579 39.306C74.7712 38.1713 75.0779 36.822 75.0779 35.258ZM94.2937 26.472C95.1217 25.1227 96.195 24.0647 97.5137 23.298C98.863 22.5313 100.396 22.148 102.114 22.148V28.91H100.412C98.3877 28.91 96.8544 29.3853 95.8117 30.336C94.7997 31.2867 94.2937 32.9427 94.2937 35.304V48H87.8537V22.516H94.2937V26.472ZM120.573 22.148C123.609 22.148 126.063 23.114 127.933 25.046C129.804 26.9473 130.739 29.6153 130.739 33.05V48H124.299V33.924C124.299 31.9 123.793 30.3513 122.781 29.278C121.769 28.174 120.389 27.622 118.641 27.622C116.863 27.622 115.452 28.174 114.409 29.278C113.397 30.3513 112.891 31.9 112.891 33.924V48H106.451V22.516H112.891V25.69C113.75 24.586 114.839 23.7273 116.157 23.114C117.507 22.47 118.979 22.148 120.573 22.148ZM157.576 48.414C155.491 48.414 153.62 48.046 151.964 47.31C150.308 46.5433 148.99 45.516 148.008 44.228C147.058 42.94 146.536 41.514 146.444 39.95H152.93C153.053 40.9313 153.528 41.744 154.356 42.388C155.215 43.032 156.273 43.354 157.53 43.354C158.757 43.354 159.708 43.1087 160.382 42.618C161.088 42.1273 161.44 41.4987 161.44 40.732C161.44 39.904 161.011 39.2907 160.152 38.892C159.324 38.4627 157.99 38.0027 156.15 37.512C154.249 37.052 152.685 36.5767 151.458 36.086C150.262 35.5953 149.22 34.844 148.33 33.832C147.472 32.82 147.042 31.4553 147.042 29.738C147.042 28.3273 147.441 27.0393 148.238 25.874C149.066 24.7087 150.232 23.7887 151.734 23.114C153.268 22.4393 155.062 22.102 157.116 22.102C160.152 22.102 162.575 22.8687 164.384 24.402C166.194 25.9047 167.19 27.944 167.374 30.52H161.21C161.118 29.508 160.689 28.7107 159.922 28.128C159.186 27.5147 158.19 27.208 156.932 27.208C155.767 27.208 154.862 27.4227 154.218 27.852C153.605 28.2813 153.298 28.8793 153.298 29.646C153.298 30.5047 153.728 31.164 154.586 31.624C155.445 32.0533 156.779 32.498 158.588 32.958C160.428 33.418 161.946 33.8933 163.142 34.384C164.338 34.8747 165.366 35.6413 166.224 36.684C167.114 37.696 167.574 39.0453 167.604 40.732C167.604 42.204 167.19 43.5227 166.362 44.688C165.565 45.8533 164.4 46.7733 162.866 47.448C161.364 48.092 159.6 48.414 157.576 48.414ZM179.331 26.196C180.159 25.0307 181.293 24.0647 182.735 23.298C184.207 22.5007 185.878 22.102 187.749 22.102C189.926 22.102 191.889 22.6387 193.637 23.712C195.415 24.7853 196.811 26.3187 197.823 28.312C198.865 30.2747 199.387 32.5593 199.387 35.166C199.387 37.7727 198.865 40.088 197.823 42.112C196.811 44.1053 195.415 45.654 193.637 46.758C191.889 47.862 189.926 48.414 187.749 48.414C185.878 48.414 184.222 48.0307 182.781 47.264C181.37 46.4973 180.22 45.5313 179.331 44.366V60.144H172.891V22.516H179.331V26.196ZM192.809 35.166C192.809 33.6327 192.487 32.314 191.843 31.21C191.229 30.0753 190.401 29.2167 189.359 28.634C188.347 28.0513 187.243 27.76 186.047 27.76C184.881 27.76 183.777 28.0667 182.735 28.68C181.723 29.2627 180.895 30.1213 180.251 31.256C179.637 32.3907 179.331 33.7247 179.331 35.258C179.331 36.7913 179.637 38.1253 180.251 39.26C180.895 40.3947 181.723 41.2687 182.735 41.882C183.777 42.4647 184.881 42.756 186.047 42.756C187.243 42.756 188.347 42.4493 189.359 41.836C190.401 41.2227 191.229 40.3487 191.843 39.214C192.487 38.0793 192.809 36.73 192.809 35.166ZM202.411 35.166C202.411 32.59 202.917 30.3053 203.929 28.312C204.971 26.3187 206.367 24.7853 208.115 23.712C209.893 22.6387 211.871 22.102 214.049 22.102C215.95 22.102 217.606 22.4853 219.017 23.252C220.458 24.0187 221.608 24.9847 222.467 26.15V22.516H228.953V48H222.467V44.274C221.639 45.47 220.489 46.4667 219.017 47.264C217.575 48.0307 215.904 48.414 214.003 48.414C211.856 48.414 209.893 47.862 208.115 46.758C206.367 45.654 204.971 44.1053 203.929 42.112C202.917 40.088 202.411 37.7727 202.411 35.166ZM222.467 35.258C222.467 33.694 222.16 32.36 221.547 31.256C220.933 30.1213 220.105 29.2627 219.063 28.68C218.02 28.0667 216.901 27.76 215.705 27.76C214.509 27.76 213.405 28.0513 212.393 28.634C211.381 29.2167 210.553 30.0753 209.909 31.21C209.295 32.314 208.989 33.6327 208.989 35.166C208.989 36.6993 209.295 38.0487 209.909 39.214C210.553 40.3487 211.381 41.2227 212.393 41.836C213.435 42.4493 214.539 42.756 215.705 42.756C216.901 42.756 218.02 42.4647 219.063 41.882C220.105 41.2687 220.933 40.41 221.547 39.306C222.16 38.1713 222.467 36.822 222.467 35.258ZM249.364 22.148C252.4 22.148 254.854 23.114 256.724 25.046C258.595 26.9473 259.53 29.6153 259.53 33.05V48H253.09V33.924C253.09 31.9 252.584 30.3513 251.572 29.278C250.56 28.174 249.18 27.622 247.432 27.622C245.654 27.622 244.243 28.174 243.2 29.278C242.188 30.3513 241.682 31.9 241.682 33.924V48H235.242V22.516H241.682V25.69C242.541 24.586 243.63 23.7273 244.948 23.114C246.298 22.47 247.77 22.148 249.364 22.148ZM268.92 19.48C267.786 19.48 266.835 19.1273 266.068 18.422C265.332 17.686 264.964 16.7813 264.964 15.708C264.964 14.6347 265.332 13.7453 266.068 13.04C266.835 12.304 267.786 11.936 268.92 11.936C270.055 11.936 270.99 12.304 271.726 13.04C272.493 13.7453 272.876 14.6347 272.876 15.708C272.876 16.7813 272.493 17.686 271.726 18.422C270.99 19.1273 270.055 19.48 268.92 19.48ZM272.094 22.516V48H265.654V22.516H272.094ZM288.209 48.414C286.124 48.414 284.253 48.046 282.597 47.31C280.941 46.5433 279.623 45.516 278.641 44.228C277.691 42.94 277.169 41.514 277.077 39.95H283.563C283.686 40.9313 284.161 41.744 284.989 42.388C285.848 43.032 286.906 43.354 288.163 43.354C289.39 43.354 290.341 43.1087 291.015 42.618C291.721 42.1273 292.073 41.4987 292.073 40.732C292.073 39.904 291.644 39.2907 290.785 38.892C289.957 38.4627 288.623 38.0027 286.783 37.512C284.882 37.052 283.318 36.5767 282.091 36.086C280.895 35.5953 279.853 34.844 278.963 33.832C278.105 32.82 277.675 31.4553 277.675 29.738C277.675 28.3273 278.074 27.0393 278.871 25.874C279.699 24.7087 280.865 23.7887 282.367 23.114C283.901 22.4393 285.695 22.102 287.749 22.102C290.785 22.102 293.208 22.8687 295.017 24.402C296.827 25.9047 297.823 27.944 298.007 30.52H291.843C291.751 29.508 291.322 28.7107 290.555 28.128C289.819 27.5147 288.823 27.208 287.565 27.208C286.4 27.208 285.495 27.4227 284.851 27.852C284.238 28.2813 283.931 28.8793 283.931 29.646C283.931 30.5047 284.361 31.164 285.219 31.624C286.078 32.0533 287.412 32.498 289.221 32.958C291.061 33.418 292.579 33.8933 293.775 34.384C294.971 34.8747 295.999 35.6413 296.857 36.684C297.747 37.696 298.207 39.0453 298.237 40.732C298.237 42.204 297.823 43.5227 296.995 44.688C296.198 45.8533 295.033 46.7733 293.499 47.448C291.997 48.092 290.233 48.414 288.209 48.414ZM317.876 22.148C319.808 22.148 321.525 22.5773 323.028 23.436C324.53 24.264 325.696 25.506 326.524 27.162C327.382 28.7873 327.812 30.75 327.812 33.05V48H321.372V33.924C321.372 31.9 320.866 30.3513 319.854 29.278C318.842 28.174 317.462 27.622 315.714 27.622C313.935 27.622 312.524 28.174 311.482 29.278C310.47 30.3513 309.964 31.9 309.964 33.924V48H303.524V13.96H309.964V25.69C310.792 24.586 311.896 23.7273 313.276 23.114C314.656 22.47 316.189 22.148 317.876 22.148ZM368.955 22.516V48H362.469V44.78C361.641 45.884 360.552 46.758 359.203 47.402C357.884 48.0153 356.443 48.322 354.879 48.322C352.885 48.322 351.122 47.908 349.589 47.08C348.055 46.2213 346.844 44.9793 345.955 43.354C345.096 41.698 344.667 39.7353 344.667 37.466V22.516H351.107V36.546C351.107 38.57 351.613 40.134 352.625 41.238C353.637 42.3113 355.017 42.848 356.765 42.848C358.543 42.848 359.939 42.3113 360.951 41.238C361.963 40.134 362.469 38.57 362.469 36.546V22.516H368.955ZM385.061 48.414C382.975 48.414 381.105 48.046 379.449 47.31C377.793 46.5433 376.474 45.516 375.493 44.228C374.542 42.94 374.021 41.514 373.929 39.95H380.415C380.537 40.9313 381.013 41.744 381.841 42.388C382.699 43.032 383.757 43.354 385.015 43.354C386.241 43.354 387.192 43.1087 387.867 42.618C388.572 42.1273 388.925 41.4987 388.925 40.732C388.925 39.904 388.495 39.2907 387.637 38.892C386.809 38.4627 385.475 38.0027 383.635 37.512C381.733 37.052 380.169 36.5767 378.943 36.086C377.747 35.5953 376.704 34.844 375.815 33.832C374.956 32.82 374.527 31.4553 374.527 29.738C374.527 28.3273 374.925 27.0393 375.723 25.874C376.551 24.7087 377.716 23.7887 379.219 23.114C380.752 22.4393 382.546 22.102 384.601 22.102C387.637 22.102 390.059 22.8687 391.869 24.402C393.678 25.9047 394.675 27.944 394.859 30.52H388.695C388.603 29.508 388.173 28.7107 387.407 28.128C386.671 27.5147 385.674 27.208 384.417 27.208C383.251 27.208 382.347 27.4227 381.703 27.852C381.089 28.2813 380.783 28.8793 380.783 29.646C380.783 30.5047 381.212 31.164 382.071 31.624C382.929 32.0533 384.263 32.498 386.073 32.958C387.913 33.418 389.431 33.8933 390.627 34.384C391.823 34.8747 392.85 35.6413 393.709 36.684C394.598 37.696 395.058 39.0453 395.089 40.732C395.089 42.204 394.675 43.5227 393.847 44.688C393.049 45.8533 391.884 46.7733 390.351 47.448C388.848 48.092 387.085 48.414 385.061 48.414ZM403.641 19.48C402.507 19.48 401.556 19.1273 400.789 18.422C400.053 17.686 399.685 16.7813 399.685 15.708C399.685 14.6347 400.053 13.7453 400.789 13.04C401.556 12.304 402.507 11.936 403.641 11.936C404.776 11.936 405.711 12.304 406.447 13.04C407.214 13.7453 407.597 14.6347 407.597 15.708C407.597 16.7813 407.214 17.686 406.447 18.422C405.711 19.1273 404.776 19.48 403.641 19.48ZM406.815 22.516V48H400.375V22.516H406.815ZM427.3 22.148C430.336 22.148 432.789 23.114 434.66 25.046C436.531 26.9473 437.466 29.6153 437.466 33.05V48H431.026V33.924C431.026 31.9 430.52 30.3513 429.508 29.278C428.496 28.174 427.116 27.622 425.368 27.622C423.589 27.622 422.179 28.174 421.136 29.278C420.124 30.3513 419.618 31.9 419.618 33.924V48H413.178V22.516H419.618V25.69C420.477 24.586 421.565 23.7273 422.884 23.114C424.233 22.47 425.705 22.148 427.3 22.148ZM453.572 22.102C455.473 22.102 457.145 22.4853 458.586 23.252C460.027 23.988 461.162 24.954 461.99 26.15V22.516H468.476V48.184C468.476 50.5453 468.001 52.646 467.05 54.486C466.099 56.3567 464.673 57.8287 462.772 58.902C460.871 60.006 458.571 60.558 455.872 60.558C452.253 60.558 449.279 59.7147 446.948 58.028C444.648 56.3413 443.345 54.0413 443.038 51.128H449.432C449.769 52.2933 450.49 53.2133 451.594 53.888C452.729 54.5933 454.093 54.946 455.688 54.946C457.559 54.946 459.077 54.3787 460.242 53.244C461.407 52.14 461.99 50.4533 461.99 48.184V44.228C461.162 45.424 460.012 46.4207 458.54 47.218C457.099 48.0153 455.443 48.414 453.572 48.414C451.425 48.414 449.463 47.862 447.684 46.758C445.905 45.654 444.495 44.1053 443.452 42.112C442.44 40.088 441.934 37.7727 441.934 35.166C441.934 32.59 442.44 30.3053 443.452 28.312C444.495 26.3187 445.89 24.7853 447.638 23.712C449.417 22.6387 451.395 22.102 453.572 22.102ZM461.99 35.258C461.99 33.694 461.683 32.36 461.07 31.256C460.457 30.1213 459.629 29.2627 458.586 28.68C457.543 28.0667 456.424 27.76 455.228 27.76C454.032 27.76 452.928 28.0513 451.916 28.634C450.904 29.2167 450.076 30.0753 449.432 31.21C448.819 32.314 448.512 33.6327 448.512 35.166C448.512 36.6993 448.819 38.0487 449.432 39.214C450.076 40.3487 450.904 41.2227 451.916 41.836C452.959 42.4493 454.063 42.756 455.228 42.756C456.424 42.756 457.543 42.4647 458.586 41.882C459.629 41.2687 460.457 40.41 461.07 39.306C461.683 38.1713 461.99 36.822 461.99 35.258ZM484.071 35.166C484.071 32.59 484.577 30.3053 485.589 28.312C486.631 26.3187 488.027 24.7853 489.775 23.712C491.553 22.6387 493.531 22.102 495.709 22.102C497.61 22.102 499.266 22.4853 500.677 23.252C502.118 24.0187 503.268 24.9847 504.127 26.15V22.516H510.613V48H504.127V44.274C503.299 45.47 502.149 46.4667 500.677 47.264C499.235 48.0307 497.564 48.414 495.663 48.414C493.516 48.414 491.553 47.862 489.775 46.758C488.027 45.654 486.631 44.1053 485.589 42.112C484.577 40.088 484.071 37.7727 484.071 35.166ZM504.127 35.258C504.127 33.694 503.82 32.36 503.207 31.256C502.593 30.1213 501.765 29.2627 500.723 28.68C499.68 28.0667 498.561 27.76 497.365 27.76C496.169 27.76 495.065 28.0513 494.053 28.634C493.041 29.2167 492.213 30.0753 491.569 31.21C490.955 32.314 490.649 33.6327 490.649 35.166C490.649 36.6993 490.955 38.0487 491.569 39.214C492.213 40.3487 493.041 41.2227 494.053 41.836C495.095 42.4493 496.199 42.756 497.365 42.756C498.561 42.756 499.68 42.4647 500.723 41.882C501.765 41.2687 502.593 40.41 503.207 39.306C503.82 38.1713 504.127 36.822 504.127 35.258ZM531.025 22.148C534.061 22.148 536.514 23.114 538.385 25.046C540.255 26.9473 541.191 29.6153 541.191 33.05V48H534.751V33.924C534.751 31.9 534.245 30.3513 533.233 29.278C532.221 28.174 530.841 27.622 529.093 27.622C527.314 27.622 525.903 28.174 524.861 29.278C523.849 30.3513 523.343 31.9 523.343 33.924V48H516.903V22.516H523.343V25.69C524.201 24.586 525.29 23.7273 526.609 23.114C527.958 22.47 529.43 22.148 531.025 22.148ZM571.695 22.516L555.917 60.052H549.063L554.583 47.356L544.371 22.516H551.593L558.171 40.318L564.841 22.516H571.695ZM32.704 79.892L21.848 100.822V112H15.408V100.822L4.506 79.892H11.774L18.674 94.566L25.528 79.892H32.704ZM47.7341 112.414C45.2808 112.414 43.0728 111.877 41.1101 110.804C39.1475 109.7 37.5988 108.151 36.4641 106.158C35.3601 104.165 34.8081 101.865 34.8081 99.258C34.8081 96.6513 35.3755 94.3513 36.5101 92.358C37.6755 90.3647 39.2548 88.8313 41.2481 87.758C43.2415 86.654 45.4648 86.102 47.9181 86.102C50.3715 86.102 52.5948 86.654 54.5881 87.758C56.5815 88.8313 58.1455 90.3647 59.2801 92.358C60.4455 94.3513 61.0281 96.6513 61.0281 99.258C61.0281 101.865 60.4301 104.165 59.2341 106.158C58.0688 108.151 56.4741 109.7 54.4501 110.804C52.4568 111.877 50.2181 112.414 47.7341 112.414ZM47.7341 106.802C48.8995 106.802 49.9881 106.526 51.0001 105.974C52.0428 105.391 52.8708 104.533 53.4841 103.398C54.0975 102.263 54.4041 100.883 54.4041 99.258C54.4041 96.8353 53.7601 94.98 52.4721 93.692C51.2148 92.3733 49.6661 91.714 47.8261 91.714C45.9861 91.714 44.4375 92.3733 43.1801 93.692C41.9535 94.98 41.3401 96.8353 41.3401 99.258C41.3401 101.681 41.9381 103.551 43.1341 104.87C44.3608 106.158 45.8941 106.802 47.7341 106.802ZM89.8101 86.516V112H83.3241V108.78C82.4961 109.884 81.4075 110.758 80.0581 111.402C78.7395 112.015 77.2981 112.322 75.7341 112.322C73.7408 112.322 71.9775 111.908 70.4441 111.08C68.9108 110.221 67.6995 108.979 66.8101 107.354C65.9515 105.698 65.5221 103.735 65.5221 101.466V86.516H71.9621V100.546C71.9621 102.57 72.4681 104.134 73.4801 105.238C74.4921 106.311 75.8721 106.848 77.6201 106.848C79.3988 106.848 80.7941 106.311 81.8061 105.238C82.8181 104.134 83.3241 102.57 83.3241 100.546V86.516H89.8101ZM118.014 79.892V85.09H109.458V112H103.018V85.09H94.4622V79.892H118.014ZM146.771 86.516V112H140.285V108.78C139.457 109.884 138.368 110.758 137.019 111.402C135.7 112.015 134.259 112.322 132.695 112.322C130.702 112.322 128.938 111.908 127.405 111.08C125.872 110.221 124.66 108.979 123.771 107.354C122.912 105.698 122.483 103.735 122.483 101.466V86.516H128.923V100.546C128.923 102.57 129.429 104.134 130.441 105.238C131.453 106.311 132.833 106.848 134.581 106.848C136.36 106.848 137.755 106.311 138.767 105.238C139.779 104.134 140.285 102.57 140.285 100.546V86.516H146.771ZM159.565 90.242C160.393 89.0153 161.528 88.0187 162.969 87.252C164.441 86.4853 166.113 86.102 167.983 86.102C170.161 86.102 172.123 86.6387 173.871 87.712C175.65 88.7853 177.045 90.3187 178.057 92.312C179.1 94.2747 179.621 96.5593 179.621 99.166C179.621 101.773 179.1 104.088 178.057 106.112C177.045 108.105 175.65 109.654 173.871 110.758C172.123 111.862 170.161 112.414 167.983 112.414C166.082 112.414 164.411 112.046 162.969 111.31C161.559 110.543 160.424 109.562 159.565 108.366V112H153.125V77.96H159.565V90.242ZM173.043 99.166C173.043 97.6327 172.721 96.314 172.077 95.21C171.464 94.0753 170.636 93.2167 169.593 92.634C168.581 92.0513 167.477 91.76 166.281 91.76C165.116 91.76 164.012 92.0667 162.969 92.68C161.957 93.2627 161.129 94.1213 160.485 95.256C159.872 96.3907 159.565 97.7247 159.565 99.258C159.565 100.791 159.872 102.125 160.485 103.26C161.129 104.395 161.957 105.269 162.969 105.882C164.012 106.465 165.116 106.756 166.281 106.756C167.477 106.756 168.581 106.449 169.593 105.836C170.636 105.223 171.464 104.349 172.077 103.214C172.721 102.079 173.043 100.73 173.043 99.166ZM207.991 98.706C207.991 99.626 207.93 100.454 207.807 101.19H189.177C189.33 103.03 189.974 104.471 191.109 105.514C192.244 106.557 193.639 107.078 195.295 107.078C197.687 107.078 199.389 106.051 200.401 103.996H207.347C206.611 106.449 205.2 108.473 203.115 110.068C201.03 111.632 198.469 112.414 195.433 112.414C192.98 112.414 190.772 111.877 188.809 110.804C186.877 109.7 185.359 108.151 184.255 106.158C183.182 104.165 182.645 101.865 182.645 99.258C182.645 96.6207 183.182 94.3053 184.255 92.312C185.328 90.3187 186.831 88.7853 188.763 87.712C190.695 86.6387 192.918 86.102 195.433 86.102C197.856 86.102 200.018 86.6233 201.919 87.666C203.851 88.7087 205.338 90.196 206.381 92.128C207.454 94.0293 207.991 96.222 207.991 98.706ZM201.321 96.866C201.29 95.21 200.692 93.8913 199.527 92.91C198.362 91.898 196.936 91.392 195.249 91.392C193.654 91.392 192.305 91.8827 191.201 92.864C190.128 93.8147 189.468 95.1487 189.223 96.866H201.321ZM234.279 106.066L240.719 86.516H247.573L238.143 112H230.323L220.939 86.516H227.839L234.279 106.066ZM254.456 83.48C253.321 83.48 252.37 83.1273 251.604 82.422C250.868 81.686 250.5 80.7813 250.5 79.708C250.5 78.6347 250.868 77.7453 251.604 77.04C252.37 76.304 253.321 75.936 254.456 75.936C255.59 75.936 256.526 76.304 257.262 77.04C258.028 77.7453 258.412 78.6347 258.412 79.708C258.412 80.7813 258.028 81.686 257.262 82.422C256.526 83.1273 255.59 83.48 254.456 83.48ZM257.63 86.516V112H251.19V86.516H257.63ZM262.336 99.166C262.336 96.59 262.842 94.3053 263.854 92.312C264.897 90.3187 266.308 88.7853 268.086 87.712C269.865 86.6387 271.843 86.102 274.02 86.102C275.676 86.102 277.256 86.47 278.758 87.206C280.261 87.9113 281.457 88.862 282.346 90.058V77.96H288.878V112H282.346V108.228C281.549 109.485 280.43 110.497 278.988 111.264C277.547 112.031 275.876 112.414 273.974 112.414C271.828 112.414 269.865 111.862 268.086 110.758C266.308 109.654 264.897 108.105 263.854 106.112C262.842 104.088 262.336 101.773 262.336 99.166ZM282.392 99.258C282.392 97.694 282.086 96.36 281.472 95.256C280.859 94.1213 280.031 93.2627 278.988 92.68C277.946 92.0667 276.826 91.76 275.63 91.76C274.434 91.76 273.33 92.0513 272.318 92.634C271.306 93.2167 270.478 94.0753 269.834 95.21C269.221 96.314 268.914 97.6327 268.914 99.166C268.914 100.699 269.221 102.049 269.834 103.214C270.478 104.349 271.306 105.223 272.318 105.836C273.361 106.449 274.465 106.756 275.63 106.756C276.826 106.756 277.946 106.465 278.988 105.882C280.031 105.269 280.859 104.41 281.472 103.306C282.086 102.171 282.392 100.822 282.392 99.258ZM318.858 98.706C318.858 99.626 318.797 100.454 318.674 101.19H300.044C300.197 103.03 300.841 104.471 301.976 105.514C303.111 106.557 304.506 107.078 306.162 107.078C308.554 107.078 310.256 106.051 311.268 103.996H318.214C317.478 106.449 316.067 108.473 313.982 110.068C311.897 111.632 309.336 112.414 306.3 112.414C303.847 112.414 301.639 111.877 299.676 110.804C297.744 109.7 296.226 108.151 295.122 106.158C294.049 104.165 293.512 101.865 293.512 99.258C293.512 96.6207 294.049 94.3053 295.122 92.312C296.195 90.3187 297.698 88.7853 299.63 87.712C301.562 86.6387 303.785 86.102 306.3 86.102C308.723 86.102 310.885 86.6233 312.786 87.666C314.718 88.7087 316.205 90.196 317.248 92.128C318.321 94.0293 318.858 96.222 318.858 98.706ZM312.188 96.866C312.157 95.21 311.559 93.8913 310.394 92.91C309.229 91.898 307.803 91.392 306.116 91.392C304.521 91.392 303.172 91.8827 302.068 92.864C300.995 93.8147 300.335 95.1487 300.09 96.866H312.188ZM334.875 112.414C332.421 112.414 330.213 111.877 328.251 110.804C326.288 109.7 324.739 108.151 323.605 106.158C322.501 104.165 321.949 101.865 321.949 99.258C321.949 96.6513 322.516 94.3513 323.651 92.358C324.816 90.3647 326.395 88.8313 328.389 87.758C330.382 86.654 332.605 86.102 335.059 86.102C337.512 86.102 339.735 86.654 341.729 87.758C343.722 88.8313 345.286 90.3647 346.421 92.358C347.586 94.3513 348.169 96.6513 348.169 99.258C348.169 101.865 347.571 104.165 346.375 106.158C345.209 108.151 343.615 109.7 341.591 110.804C339.597 111.877 337.359 112.414 334.875 112.414ZM334.875 106.802C336.04 106.802 337.129 106.526 338.141 105.974C339.183 105.391 340.011 104.533 340.625 103.398C341.238 102.263 341.545 100.883 341.545 99.258C341.545 96.8353 340.901 94.98 339.613 93.692C338.355 92.3733 336.807 91.714 334.967 91.714C333.127 91.714 331.578 92.3733 330.321 93.692C329.094 94.98 328.481 96.8353 328.481 99.258C328.481 101.681 329.079 103.551 330.275 104.87C331.501 106.158 333.035 106.802 334.875 106.802ZM397.46 91.806H392.998V112H386.466V91.806H383.568V86.516H386.466V85.228C386.466 82.1 387.355 79.8 389.134 78.328C390.912 76.856 393.596 76.166 397.184 76.258V81.686C395.62 81.6553 394.531 81.916 393.918 82.468C393.304 83.02 392.998 84.0167 392.998 85.458V86.516H397.46V91.806ZM412.949 112.414C410.496 112.414 408.288 111.877 406.325 110.804C404.362 109.7 402.814 108.151 401.679 106.158C400.575 104.165 400.023 101.865 400.023 99.258C400.023 96.6513 400.59 94.3513 401.725 92.358C402.89 90.3647 404.47 88.8313 406.463 87.758C408.456 86.654 410.68 86.102 413.133 86.102C415.586 86.102 417.81 86.654 419.803 87.758C421.796 88.8313 423.36 90.3647 424.495 92.358C425.66 94.3513 426.243 96.6513 426.243 99.258C426.243 101.865 425.645 104.165 424.449 106.158C423.284 108.151 421.689 109.7 419.665 110.804C417.672 111.877 415.433 112.414 412.949 112.414ZM412.949 106.802C414.114 106.802 415.203 106.526 416.215 105.974C417.258 105.391 418.086 104.533 418.699 103.398C419.312 102.263 419.619 100.883 419.619 99.258C419.619 96.8353 418.975 94.98 417.687 93.692C416.43 92.3733 414.881 91.714 413.041 91.714C411.201 91.714 409.652 92.3733 408.395 93.692C407.168 94.98 406.555 96.8353 406.555 99.258C406.555 101.681 407.153 103.551 408.349 104.87C409.576 106.158 411.109 106.802 412.949 106.802ZM437.407 90.472C438.235 89.1227 439.308 88.0647 440.627 87.298C441.976 86.5313 443.51 86.148 445.227 86.148V92.91H443.525C441.501 92.91 439.968 93.3853 438.925 94.336C437.913 95.2867 437.407 96.9427 437.407 99.304V112H430.967V86.516H437.407V90.472ZM472.21 91.806H467.748V112H461.216V91.806H458.318V86.516H461.216V85.228C461.216 82.1 462.105 79.8 463.884 78.328C465.662 76.856 468.346 76.166 471.934 76.258V81.686C470.37 81.6553 469.281 81.916 468.668 82.468C468.054 83.02 467.748 84.0167 467.748 85.458V86.516H472.21V91.806ZM482.823 90.472C483.651 89.1227 484.724 88.0647 486.043 87.298C487.392 86.5313 488.926 86.148 490.643 86.148V92.91H488.941C486.917 92.91 485.384 93.3853 484.341 94.336C483.329 95.2867 482.823 96.9427 482.823 99.304V112H476.383V86.516H482.823V90.472ZM518.671 98.706C518.671 99.626 518.609 100.454 518.487 101.19H499.857C500.01 103.03 500.654 104.471 501.789 105.514C502.923 106.557 504.319 107.078 505.975 107.078C508.367 107.078 510.069 106.051 511.081 103.996H518.027C517.291 106.449 515.88 108.473 513.795 110.068C511.709 111.632 509.149 112.414 506.113 112.414C503.659 112.414 501.451 111.877 499.489 110.804C497.557 109.7 496.039 108.151 494.935 106.158C493.861 104.165 493.325 101.865 493.325 99.258C493.325 96.6207 493.861 94.3053 494.935 92.312C496.008 90.3187 497.511 88.7853 499.443 87.712C501.375 86.6387 503.598 86.102 506.113 86.102C508.535 86.102 510.697 86.6233 512.599 87.666C514.531 88.7087 516.018 90.196 517.061 92.128C518.134 94.0293 518.671 96.222 518.671 98.706ZM512.001 96.866C511.97 95.21 511.372 93.8913 510.207 92.91C509.041 91.898 507.615 91.392 505.929 91.392C504.334 91.392 502.985 91.8827 501.881 92.864C500.807 93.8147 500.148 95.1487 499.903 96.866H512.001ZM547.061 98.706C547.061 99.626 547 100.454 546.877 101.19H528.247C528.401 103.03 529.045 104.471 530.179 105.514C531.314 106.557 532.709 107.078 534.365 107.078C536.757 107.078 538.459 106.051 539.471 103.996H546.417C545.681 106.449 544.271 108.473 542.185 110.068C540.1 111.632 537.539 112.414 534.503 112.414C532.05 112.414 529.842 111.877 527.879 110.804C525.947 109.7 524.429 108.151 523.325 106.158C522.252 104.165 521.715 101.865 521.715 99.258C521.715 96.6207 522.252 94.3053 523.325 92.312C524.399 90.3187 525.901 88.7853 527.833 87.712C529.765 86.6387 531.989 86.102 534.503 86.102C536.926 86.102 539.088 86.6233 540.989 87.666C542.921 88.7087 544.409 90.196 545.451 92.128C546.525 94.0293 547.061 96.222 547.061 98.706ZM540.391 96.866C540.361 95.21 539.763 93.8913 538.597 92.91C537.432 91.898 536.006 91.392 534.319 91.392C532.725 91.392 531.375 91.8827 530.271 92.864C529.198 93.8147 528.539 95.1487 528.293 96.866H540.391ZM560.088 79.34L559.352 101.558H553.924L553.142 79.34H560.088ZM556.776 112.322C555.611 112.322 554.645 111.969 553.878 111.264C553.142 110.528 552.774 109.623 552.774 108.55C552.774 107.477 553.142 106.587 553.878 105.882C554.645 105.146 555.611 104.778 556.776 104.778C557.911 104.778 558.846 105.146 559.582 105.882C560.318 106.587 560.686 107.477 560.686 108.55C560.686 109.623 560.318 110.528 559.582 111.264C558.846 111.969 557.911 112.322 556.776 112.322Z" fill="#1F242D"/>
</g>
<defs>
<filter id="filter0_d_14_412" x="0.505981" y="11.936" width="575.189" height="108.478" filterUnits="userSpaceOnUse" color-interpolation-filters="sRGB">
<feFlood flood-opacity="0" result="BackgroundImageFix"/>
<feColorMatrix in="SourceAlpha" type="matrix" values="0 0 0 0 0 0 0 0 0 0 0 0 0 0 0 0 0 0 127 0" result="hardAlpha"/>
<feOffset dy="4"/>
<feGaussianBlur stdDeviation="2"/>
<feComposite in2="hardAlpha" operator="out"/>
<feColorMatrix type="matrix" values="0 0 0 0 0 0 0 0 0 0 0 0 0 0 0 0 0 0 0.04 0"/>
<feBlend mode="normal" in2="BackgroundImageFix" result="effect1_dropShadow_14_412"/>
<feBlend mode="normal" in="SourceGraphic" in2="effect1_dropShadow_14_412" result="shape"/>
</filter>
</defs>
</svg>
